<mxfile host="Electron" agent="Mozilla/5.0 (Macintosh; Intel Mac OS X 10_15_7) AppleWebKit/537.36 (KHTML, like Gecko) draw.io/24.7.17 Chrome/128.0.6613.36 Electron/32.0.1 Safari/537.36" version="24.7.17">
  <diagram name="Ejercicio 1" id="BQdj46R5AcbaUAhyW1e1">
    <mxGraphModel dx="5324" dy="2207" grid="0" gridSize="10" guides="1" tooltips="1" connect="1" arrows="1" fold="1" page="1" pageScale="1" pageWidth="827" pageHeight="1169" math="0" shadow="0">
      <root>
        <mxCell id="0" />
        <mxCell id="1" parent="0" />
        <mxCell id="UK-q2pysJeKZqtUmhiG1-1" value="T1" style="rounded=0;whiteSpace=wrap;html=1;fillColor=#dae8fc;strokeColor=#6c8ebf;" vertex="1" parent="1">
          <mxGeometry x="40" y="550" width="80" height="40" as="geometry" />
        </mxCell>
        <mxCell id="UK-q2pysJeKZqtUmhiG1-6" value="T2" style="rounded=0;whiteSpace=wrap;html=1;fillColor=#dae8fc;strokeColor=#6c8ebf;" vertex="1" parent="1">
          <mxGeometry x="120" y="550" width="80" height="40" as="geometry" />
        </mxCell>
        <mxCell id="UK-q2pysJeKZqtUmhiG1-7" value="T3" style="rounded=0;whiteSpace=wrap;html=1;fillColor=#dae8fc;strokeColor=#6c8ebf;" vertex="1" parent="1">
          <mxGeometry x="200" y="550" width="80" height="40" as="geometry" />
        </mxCell>
        <mxCell id="UK-q2pysJeKZqtUmhiG1-8" value="T4" style="rounded=0;whiteSpace=wrap;html=1;fillColor=#dae8fc;strokeColor=#6c8ebf;" vertex="1" parent="1">
          <mxGeometry x="280" y="550" width="80" height="40" as="geometry" />
        </mxCell>
        <mxCell id="UK-q2pysJeKZqtUmhiG1-9" value="T5" style="rounded=0;whiteSpace=wrap;html=1;fillColor=#dae8fc;strokeColor=#6c8ebf;" vertex="1" parent="1">
          <mxGeometry x="360" y="550" width="80" height="40" as="geometry" />
        </mxCell>
        <mxCell id="UK-q2pysJeKZqtUmhiG1-10" value="T6" style="rounded=0;whiteSpace=wrap;html=1;fillColor=#dae8fc;strokeColor=#6c8ebf;" vertex="1" parent="1">
          <mxGeometry x="440" y="550" width="80" height="40" as="geometry" />
        </mxCell>
        <mxCell id="UK-q2pysJeKZqtUmhiG1-11" value="T7" style="rounded=0;whiteSpace=wrap;html=1;fillColor=#dae8fc;strokeColor=#6c8ebf;" vertex="1" parent="1">
          <mxGeometry x="520" y="550" width="80" height="40" as="geometry" />
        </mxCell>
        <mxCell id="UK-q2pysJeKZqtUmhiG1-12" value="T8" style="rounded=0;whiteSpace=wrap;html=1;fillColor=#dae8fc;strokeColor=#6c8ebf;" vertex="1" parent="1">
          <mxGeometry x="600" y="550" width="80" height="40" as="geometry" />
        </mxCell>
        <mxCell id="UK-q2pysJeKZqtUmhiG1-13" value="T9" style="rounded=0;whiteSpace=wrap;html=1;fillColor=#dae8fc;strokeColor=#6c8ebf;" vertex="1" parent="1">
          <mxGeometry x="680" y="550" width="80" height="40" as="geometry" />
        </mxCell>
        <mxCell id="UK-q2pysJeKZqtUmhiG1-14" value="P1 (T7)" style="rounded=0;whiteSpace=wrap;html=1;fillColor=#fff2cc;strokeColor=#d6b656;" vertex="1" parent="1">
          <mxGeometry x="40" y="520" width="80" height="20" as="geometry" />
        </mxCell>
        <mxCell id="UK-q2pysJeKZqtUmhiG1-15" value="P2 (T4)" style="rounded=0;whiteSpace=wrap;html=1;fillColor=#fff2cc;strokeColor=#d6b656;" vertex="1" parent="1">
          <mxGeometry x="200" y="520" width="80" height="20" as="geometry" />
        </mxCell>
        <mxCell id="UK-q2pysJeKZqtUmhiG1-16" value="P3 (T1)" style="rounded=0;whiteSpace=wrap;html=1;fillColor=#fff2cc;strokeColor=#d6b656;" vertex="1" parent="1">
          <mxGeometry x="360" y="520" width="80" height="20" as="geometry" />
        </mxCell>
        <mxCell id="UK-q2pysJeKZqtUmhiG1-17" value="P4 (T4)" style="rounded=0;whiteSpace=wrap;html=1;fillColor=#fff2cc;strokeColor=#d6b656;" vertex="1" parent="1">
          <mxGeometry x="440" y="520" width="80" height="20" as="geometry" />
        </mxCell>
        <mxCell id="UK-q2pysJeKZqtUmhiG1-18" value="T1" style="rounded=0;whiteSpace=wrap;html=1;fillColor=#dae8fc;strokeColor=#6c8ebf;" vertex="1" parent="1">
          <mxGeometry x="40" y="840" width="80" height="40" as="geometry" />
        </mxCell>
        <mxCell id="UK-q2pysJeKZqtUmhiG1-19" value="T2" style="rounded=0;whiteSpace=wrap;html=1;fillColor=#dae8fc;strokeColor=#6c8ebf;" vertex="1" parent="1">
          <mxGeometry x="120" y="840" width="80" height="40" as="geometry" />
        </mxCell>
        <mxCell id="UK-q2pysJeKZqtUmhiG1-20" value="T3" style="rounded=0;whiteSpace=wrap;html=1;fillColor=#dae8fc;strokeColor=#6c8ebf;" vertex="1" parent="1">
          <mxGeometry x="200" y="840" width="80" height="40" as="geometry" />
        </mxCell>
        <mxCell id="UK-q2pysJeKZqtUmhiG1-21" value="T4" style="rounded=0;whiteSpace=wrap;html=1;fillColor=#dae8fc;strokeColor=#6c8ebf;" vertex="1" parent="1">
          <mxGeometry x="280" y="840" width="80" height="40" as="geometry" />
        </mxCell>
        <mxCell id="UK-q2pysJeKZqtUmhiG1-22" value="T5" style="rounded=0;whiteSpace=wrap;html=1;fillColor=#dae8fc;strokeColor=#6c8ebf;" vertex="1" parent="1">
          <mxGeometry x="360" y="840" width="80" height="40" as="geometry" />
        </mxCell>
        <mxCell id="UK-q2pysJeKZqtUmhiG1-23" value="T6" style="rounded=0;whiteSpace=wrap;html=1;fillColor=#dae8fc;strokeColor=#6c8ebf;" vertex="1" parent="1">
          <mxGeometry x="440" y="840" width="80" height="40" as="geometry" />
        </mxCell>
        <mxCell id="UK-q2pysJeKZqtUmhiG1-24" value="T7" style="rounded=0;whiteSpace=wrap;html=1;fillColor=#dae8fc;strokeColor=#6c8ebf;" vertex="1" parent="1">
          <mxGeometry x="520" y="840" width="80" height="40" as="geometry" />
        </mxCell>
        <mxCell id="UK-q2pysJeKZqtUmhiG1-25" value="T8" style="rounded=0;whiteSpace=wrap;html=1;fillColor=#dae8fc;strokeColor=#6c8ebf;" vertex="1" parent="1">
          <mxGeometry x="600" y="840" width="80" height="40" as="geometry" />
        </mxCell>
        <mxCell id="UK-q2pysJeKZqtUmhiG1-26" value="T9" style="rounded=0;whiteSpace=wrap;html=1;fillColor=#dae8fc;strokeColor=#6c8ebf;" vertex="1" parent="1">
          <mxGeometry x="680" y="840" width="80" height="40" as="geometry" />
        </mxCell>
        <mxCell id="UK-q2pysJeKZqtUmhiG1-27" value="P1 (T7)" style="rounded=0;whiteSpace=wrap;html=1;fillColor=#d5e8d4;strokeColor=#82b366;" vertex="1" parent="1">
          <mxGeometry x="120" y="810" width="480" height="20" as="geometry" />
        </mxCell>
        <mxCell id="UK-q2pysJeKZqtUmhiG1-28" value="P2 (T4)" style="rounded=0;whiteSpace=wrap;html=1;fillColor=#fff2cc;strokeColor=#d6b656;" vertex="1" parent="1">
          <mxGeometry x="200" y="780" width="80" height="20" as="geometry" />
        </mxCell>
        <mxCell id="UK-q2pysJeKZqtUmhiG1-29" value="P3 (T1)" style="rounded=0;whiteSpace=wrap;html=1;fillColor=#fff2cc;strokeColor=#d6b656;" vertex="1" parent="1">
          <mxGeometry x="360" y="750" width="80" height="20" as="geometry" />
        </mxCell>
        <mxCell id="UK-q2pysJeKZqtUmhiG1-30" value="P4 (T4)" style="rounded=0;whiteSpace=wrap;html=1;fillColor=#fff2cc;strokeColor=#d6b656;" vertex="1" parent="1">
          <mxGeometry x="440" y="720" width="80" height="20" as="geometry" />
        </mxCell>
        <mxCell id="UK-q2pysJeKZqtUmhiG1-31" value="Interrumpido" style="rounded=0;whiteSpace=wrap;html=1;fillColor=#f8cecc;strokeColor=#b85450;" vertex="1" parent="1">
          <mxGeometry x="40" y="431" width="80" height="20" as="geometry" />
        </mxCell>
        <mxCell id="UK-q2pysJeKZqtUmhiG1-32" value="Leyenda:" style="text;html=1;align=left;verticalAlign=middle;whiteSpace=wrap;rounded=0;" vertex="1" parent="1">
          <mxGeometry x="39" y="378" width="60" height="30" as="geometry" />
        </mxCell>
        <mxCell id="UK-q2pysJeKZqtUmhiG1-33" value="Ejecutando" style="rounded=0;whiteSpace=wrap;html=1;fillColor=#d5e8d4;strokeColor=#82b366;" vertex="1" parent="1">
          <mxGeometry x="130" y="431" width="80" height="20" as="geometry" />
        </mxCell>
        <mxCell id="UK-q2pysJeKZqtUmhiG1-34" value="Esperando" style="rounded=0;whiteSpace=wrap;html=1;fillColor=#f5f5f5;strokeColor=#666666;fontColor=#333333;" vertex="1" parent="1">
          <mxGeometry x="220" y="431" width="80" height="20" as="geometry" />
        </mxCell>
        <mxCell id="UK-q2pysJeKZqtUmhiG1-35" value="Entrada" style="rounded=0;whiteSpace=wrap;html=1;fillColor=#fff2cc;strokeColor=#d6b656;" vertex="1" parent="1">
          <mxGeometry x="310" y="431" width="80" height="20" as="geometry" />
        </mxCell>
        <mxCell id="UK-q2pysJeKZqtUmhiG1-36" value="P1 (T7)" style="rounded=0;whiteSpace=wrap;html=1;fillColor=#fff2cc;strokeColor=#d6b656;" vertex="1" parent="1">
          <mxGeometry x="39" y="810" width="80" height="10" as="geometry" />
        </mxCell>
        <mxCell id="UK-q2pysJeKZqtUmhiG1-37" value="P2 (T4)" style="rounded=0;whiteSpace=wrap;html=1;fillColor=#d5e8d4;strokeColor=#82b366;" vertex="1" parent="1">
          <mxGeometry x="600" y="780" width="320" height="20" as="geometry" />
        </mxCell>
        <mxCell id="UK-q2pysJeKZqtUmhiG1-38" value="T10" style="rounded=0;whiteSpace=wrap;html=1;fillColor=#dae8fc;strokeColor=#6c8ebf;" vertex="1" parent="1">
          <mxGeometry x="760" y="840" width="80" height="40" as="geometry" />
        </mxCell>
        <mxCell id="UK-q2pysJeKZqtUmhiG1-39" value="T11" style="rounded=0;whiteSpace=wrap;html=1;fillColor=#dae8fc;strokeColor=#6c8ebf;" vertex="1" parent="1">
          <mxGeometry x="840" y="840" width="80" height="40" as="geometry" />
        </mxCell>
        <mxCell id="UK-q2pysJeKZqtUmhiG1-40" value="P2 (T4)" style="rounded=0;whiteSpace=wrap;html=1;fillColor=#f5f5f5;strokeColor=#666666;fontColor=#333333;" vertex="1" parent="1">
          <mxGeometry x="280" y="780" width="320" height="20" as="geometry" />
        </mxCell>
        <mxCell id="UK-q2pysJeKZqtUmhiG1-41" value="P4 (T4)" style="rounded=0;whiteSpace=wrap;html=1;fillColor=#f5f5f5;strokeColor=#666666;fontColor=#333333;" vertex="1" parent="1">
          <mxGeometry x="520" y="720" width="480" height="20" as="geometry" />
        </mxCell>
        <mxCell id="UK-q2pysJeKZqtUmhiG1-42" value="P3 (T1)" style="rounded=0;whiteSpace=wrap;html=1;fillColor=#f5f5f5;strokeColor=#666666;fontColor=#333333;" vertex="1" parent="1">
          <mxGeometry x="440" y="750" width="480" height="20" as="geometry" />
        </mxCell>
        <mxCell id="UK-q2pysJeKZqtUmhiG1-43" value="P3 (T1)" style="rounded=0;whiteSpace=wrap;html=1;fillColor=#d5e8d4;strokeColor=#82b366;" vertex="1" parent="1">
          <mxGeometry x="920" y="750" width="80" height="20" as="geometry" />
        </mxCell>
        <mxCell id="UK-q2pysJeKZqtUmhiG1-44" value="T12" style="rounded=0;whiteSpace=wrap;html=1;fillColor=#dae8fc;strokeColor=#6c8ebf;" vertex="1" parent="1">
          <mxGeometry x="920" y="840" width="80" height="40" as="geometry" />
        </mxCell>
        <mxCell id="UK-q2pysJeKZqtUmhiG1-45" value="P4 (T4)" style="rounded=0;whiteSpace=wrap;html=1;fillColor=#d5e8d4;strokeColor=#82b366;" vertex="1" parent="1">
          <mxGeometry x="1000" y="720" width="320" height="20" as="geometry" />
        </mxCell>
        <mxCell id="UK-q2pysJeKZqtUmhiG1-46" value="T13" style="rounded=0;whiteSpace=wrap;html=1;fillColor=#dae8fc;strokeColor=#6c8ebf;" vertex="1" parent="1">
          <mxGeometry x="1000" y="840" width="80" height="40" as="geometry" />
        </mxCell>
        <mxCell id="UK-q2pysJeKZqtUmhiG1-47" value="T14" style="rounded=0;whiteSpace=wrap;html=1;fillColor=#dae8fc;strokeColor=#6c8ebf;" vertex="1" parent="1">
          <mxGeometry x="1080" y="840" width="80" height="40" as="geometry" />
        </mxCell>
        <mxCell id="UK-q2pysJeKZqtUmhiG1-48" value="T15" style="rounded=0;whiteSpace=wrap;html=1;fillColor=#dae8fc;strokeColor=#6c8ebf;" vertex="1" parent="1">
          <mxGeometry x="1161" y="840" width="80" height="40" as="geometry" />
        </mxCell>
        <mxCell id="UK-q2pysJeKZqtUmhiG1-49" value="T16" style="rounded=0;whiteSpace=wrap;html=1;fillColor=#dae8fc;strokeColor=#6c8ebf;" vertex="1" parent="1">
          <mxGeometry x="1241" y="840" width="80" height="40" as="geometry" />
        </mxCell>
        <mxCell id="UK-q2pysJeKZqtUmhiG1-50" value="T1" style="rounded=0;whiteSpace=wrap;html=1;fillColor=#dae8fc;strokeColor=#6c8ebf;" vertex="1" parent="1">
          <mxGeometry x="39" y="1090" width="80" height="40" as="geometry" />
        </mxCell>
        <mxCell id="UK-q2pysJeKZqtUmhiG1-51" value="T2" style="rounded=0;whiteSpace=wrap;html=1;fillColor=#dae8fc;strokeColor=#6c8ebf;" vertex="1" parent="1">
          <mxGeometry x="119" y="1090" width="80" height="40" as="geometry" />
        </mxCell>
        <mxCell id="UK-q2pysJeKZqtUmhiG1-52" value="T3" style="rounded=0;whiteSpace=wrap;html=1;fillColor=#dae8fc;strokeColor=#6c8ebf;" vertex="1" parent="1">
          <mxGeometry x="199" y="1090" width="80" height="40" as="geometry" />
        </mxCell>
        <mxCell id="UK-q2pysJeKZqtUmhiG1-53" value="T4" style="rounded=0;whiteSpace=wrap;html=1;fillColor=#dae8fc;strokeColor=#6c8ebf;" vertex="1" parent="1">
          <mxGeometry x="279" y="1090" width="80" height="40" as="geometry" />
        </mxCell>
        <mxCell id="UK-q2pysJeKZqtUmhiG1-54" value="T5" style="rounded=0;whiteSpace=wrap;html=1;fillColor=#dae8fc;strokeColor=#6c8ebf;" vertex="1" parent="1">
          <mxGeometry x="359" y="1090" width="80" height="40" as="geometry" />
        </mxCell>
        <mxCell id="UK-q2pysJeKZqtUmhiG1-55" value="T6" style="rounded=0;whiteSpace=wrap;html=1;fillColor=#dae8fc;strokeColor=#6c8ebf;" vertex="1" parent="1">
          <mxGeometry x="439" y="1090" width="80" height="40" as="geometry" />
        </mxCell>
        <mxCell id="UK-q2pysJeKZqtUmhiG1-56" value="T7" style="rounded=0;whiteSpace=wrap;html=1;fillColor=#dae8fc;strokeColor=#6c8ebf;" vertex="1" parent="1">
          <mxGeometry x="519" y="1090" width="80" height="40" as="geometry" />
        </mxCell>
        <mxCell id="UK-q2pysJeKZqtUmhiG1-57" value="T8" style="rounded=0;whiteSpace=wrap;html=1;fillColor=#dae8fc;strokeColor=#6c8ebf;" vertex="1" parent="1">
          <mxGeometry x="599" y="1090" width="80" height="40" as="geometry" />
        </mxCell>
        <mxCell id="UK-q2pysJeKZqtUmhiG1-58" value="T9" style="rounded=0;whiteSpace=wrap;html=1;fillColor=#dae8fc;strokeColor=#6c8ebf;" vertex="1" parent="1">
          <mxGeometry x="679" y="1090" width="80" height="40" as="geometry" />
        </mxCell>
        <mxCell id="UK-q2pysJeKZqtUmhiG1-59" value="P1 (T7)" style="rounded=0;whiteSpace=wrap;html=1;fillColor=#d5e8d4;strokeColor=#82b366;" vertex="1" parent="1">
          <mxGeometry x="120" y="1060" width="160" height="20" as="geometry" />
        </mxCell>
        <mxCell id="UK-q2pysJeKZqtUmhiG1-60" value="P2 (T4)" style="rounded=0;whiteSpace=wrap;html=1;fillColor=#fff2cc;strokeColor=#d6b656;" vertex="1" parent="1">
          <mxGeometry x="199" y="1030" width="80" height="20" as="geometry" />
        </mxCell>
        <mxCell id="UK-q2pysJeKZqtUmhiG1-61" value="P3 (T1)" style="rounded=0;whiteSpace=wrap;html=1;fillColor=#fff2cc;strokeColor=#d6b656;" vertex="1" parent="1">
          <mxGeometry x="359" y="1000" width="80" height="20" as="geometry" />
        </mxCell>
        <mxCell id="UK-q2pysJeKZqtUmhiG1-62" value="P4 (T4)" style="rounded=0;whiteSpace=wrap;html=1;fillColor=#fff2cc;strokeColor=#d6b656;" vertex="1" parent="1">
          <mxGeometry x="439" y="970" width="80" height="20" as="geometry" />
        </mxCell>
        <mxCell id="UK-q2pysJeKZqtUmhiG1-63" value="P1 (T7)" style="rounded=0;whiteSpace=wrap;html=1;fillColor=#fff2cc;strokeColor=#d6b656;" vertex="1" parent="1">
          <mxGeometry x="39" y="1060" width="80" height="10" as="geometry" />
        </mxCell>
        <mxCell id="UK-q2pysJeKZqtUmhiG1-65" value="T10" style="rounded=0;whiteSpace=wrap;html=1;fillColor=#dae8fc;strokeColor=#6c8ebf;" vertex="1" parent="1">
          <mxGeometry x="759" y="1090" width="80" height="40" as="geometry" />
        </mxCell>
        <mxCell id="UK-q2pysJeKZqtUmhiG1-66" value="T11" style="rounded=0;whiteSpace=wrap;html=1;fillColor=#dae8fc;strokeColor=#6c8ebf;" vertex="1" parent="1">
          <mxGeometry x="839" y="1090" width="80" height="40" as="geometry" />
        </mxCell>
        <mxCell id="UK-q2pysJeKZqtUmhiG1-67" value="P2 (T4)" style="rounded=0;whiteSpace=wrap;html=1;fillColor=#d5e8d4;strokeColor=#82b366;" vertex="1" parent="1">
          <mxGeometry x="279.5" y="1030" width="241" height="20" as="geometry" />
        </mxCell>
        <mxCell id="UK-q2pysJeKZqtUmhiG1-68" value="P4 (T4)" style="rounded=0;whiteSpace=wrap;html=1;fillColor=#f5f5f5;strokeColor=#666666;fontColor=#333333;" vertex="1" parent="1">
          <mxGeometry x="520.5" y="970" width="319.5" height="20" as="geometry" />
        </mxCell>
        <mxCell id="UK-q2pysJeKZqtUmhiG1-69" value="P3 (T1)" style="rounded=0;whiteSpace=wrap;html=1;fillColor=#f5f5f5;strokeColor=#666666;fontColor=#333333;" vertex="1" parent="1">
          <mxGeometry x="439" y="1000" width="321" height="20" as="geometry" />
        </mxCell>
        <mxCell id="UK-q2pysJeKZqtUmhiG1-70" value="P3 (T1)" style="rounded=0;whiteSpace=wrap;html=1;fillColor=#d5e8d4;strokeColor=#82b366;" vertex="1" parent="1">
          <mxGeometry x="760" y="1000" width="80" height="20" as="geometry" />
        </mxCell>
        <mxCell id="UK-q2pysJeKZqtUmhiG1-71" value="T12" style="rounded=0;whiteSpace=wrap;html=1;fillColor=#dae8fc;strokeColor=#6c8ebf;" vertex="1" parent="1">
          <mxGeometry x="919" y="1090" width="80" height="40" as="geometry" />
        </mxCell>
        <mxCell id="UK-q2pysJeKZqtUmhiG1-72" value="P4 (T4)" style="rounded=0;whiteSpace=wrap;html=1;fillColor=#d5e8d4;strokeColor=#82b366;" vertex="1" parent="1">
          <mxGeometry x="1240" y="970" width="80" height="20" as="geometry" />
        </mxCell>
        <mxCell id="UK-q2pysJeKZqtUmhiG1-73" value="T13" style="rounded=0;whiteSpace=wrap;html=1;fillColor=#dae8fc;strokeColor=#6c8ebf;" vertex="1" parent="1">
          <mxGeometry x="999" y="1090" width="80" height="40" as="geometry" />
        </mxCell>
        <mxCell id="UK-q2pysJeKZqtUmhiG1-74" value="T14" style="rounded=0;whiteSpace=wrap;html=1;fillColor=#dae8fc;strokeColor=#6c8ebf;" vertex="1" parent="1">
          <mxGeometry x="1079" y="1090" width="80" height="40" as="geometry" />
        </mxCell>
        <mxCell id="UK-q2pysJeKZqtUmhiG1-75" value="T15" style="rounded=0;whiteSpace=wrap;html=1;fillColor=#dae8fc;strokeColor=#6c8ebf;" vertex="1" parent="1">
          <mxGeometry x="1160" y="1090" width="80" height="40" as="geometry" />
        </mxCell>
        <mxCell id="UK-q2pysJeKZqtUmhiG1-76" value="T16" style="rounded=0;whiteSpace=wrap;html=1;fillColor=#dae8fc;strokeColor=#6c8ebf;" vertex="1" parent="1">
          <mxGeometry x="1240" y="1090" width="80" height="40" as="geometry" />
        </mxCell>
        <mxCell id="UK-q2pysJeKZqtUmhiG1-78" value="P2 (T4)" style="rounded=0;whiteSpace=wrap;html=1;fillColor=#f5f5f5;strokeColor=#666666;fontColor=#333333;" vertex="1" parent="1">
          <mxGeometry x="520" y="1030" width="560" height="20" as="geometry" />
        </mxCell>
        <mxCell id="UK-q2pysJeKZqtUmhiG1-81" value="P2 (T4)" style="rounded=0;whiteSpace=wrap;html=1;fillColor=#d5e8d4;strokeColor=#82b366;" vertex="1" parent="1">
          <mxGeometry x="1081" y="1030" width="79" height="20" as="geometry" />
        </mxCell>
        <mxCell id="UK-q2pysJeKZqtUmhiG1-82" value="P4 (T4)" style="rounded=0;whiteSpace=wrap;html=1;fillColor=#f5f5f5;strokeColor=#666666;fontColor=#333333;" vertex="1" parent="1">
          <mxGeometry x="1080" y="970" width="160" height="20" as="geometry" />
        </mxCell>
        <mxCell id="UK-q2pysJeKZqtUmhiG1-83" value="P4 (T4)" style="rounded=0;whiteSpace=wrap;html=1;fillColor=#d5e8d4;strokeColor=#82b366;" vertex="1" parent="1">
          <mxGeometry x="839.5" y="970" width="240.5" height="20" as="geometry" />
        </mxCell>
        <mxCell id="UK-q2pysJeKZqtUmhiG1-87" value="Algoritmo FIFO (El primero que entra el primero que sale)" style="text;html=1;align=left;verticalAlign=middle;whiteSpace=wrap;rounded=0;" vertex="1" parent="1">
          <mxGeometry x="40" y="680" width="320" height="30" as="geometry" />
        </mxCell>
        <mxCell id="UK-q2pysJeKZqtUmhiG1-88" value="Algoritmo RR q=3 (Round Robin quantum = 3)" style="text;html=1;align=left;verticalAlign=middle;whiteSpace=wrap;rounded=0;" vertex="1" parent="1">
          <mxGeometry x="40" y="930" width="290" height="30" as="geometry" />
        </mxCell>
        <mxCell id="UK-q2pysJeKZqtUmhiG1-89" value="T1" style="rounded=0;whiteSpace=wrap;html=1;fillColor=#dae8fc;strokeColor=#6c8ebf;" vertex="1" parent="1">
          <mxGeometry x="39" y="1350" width="80" height="40" as="geometry" />
        </mxCell>
        <mxCell id="UK-q2pysJeKZqtUmhiG1-90" value="T2" style="rounded=0;whiteSpace=wrap;html=1;fillColor=#dae8fc;strokeColor=#6c8ebf;" vertex="1" parent="1">
          <mxGeometry x="119" y="1350" width="80" height="40" as="geometry" />
        </mxCell>
        <mxCell id="UK-q2pysJeKZqtUmhiG1-91" value="T3" style="rounded=0;whiteSpace=wrap;html=1;fillColor=#dae8fc;strokeColor=#6c8ebf;" vertex="1" parent="1">
          <mxGeometry x="199" y="1350" width="80" height="40" as="geometry" />
        </mxCell>
        <mxCell id="UK-q2pysJeKZqtUmhiG1-92" value="T4" style="rounded=0;whiteSpace=wrap;html=1;fillColor=#dae8fc;strokeColor=#6c8ebf;" vertex="1" parent="1">
          <mxGeometry x="279" y="1350" width="80" height="40" as="geometry" />
        </mxCell>
        <mxCell id="UK-q2pysJeKZqtUmhiG1-93" value="T5" style="rounded=0;whiteSpace=wrap;html=1;fillColor=#dae8fc;strokeColor=#6c8ebf;" vertex="1" parent="1">
          <mxGeometry x="359" y="1350" width="80" height="40" as="geometry" />
        </mxCell>
        <mxCell id="UK-q2pysJeKZqtUmhiG1-94" value="T6" style="rounded=0;whiteSpace=wrap;html=1;fillColor=#dae8fc;strokeColor=#6c8ebf;" vertex="1" parent="1">
          <mxGeometry x="439" y="1350" width="80" height="40" as="geometry" />
        </mxCell>
        <mxCell id="UK-q2pysJeKZqtUmhiG1-95" value="T7" style="rounded=0;whiteSpace=wrap;html=1;fillColor=#dae8fc;strokeColor=#6c8ebf;" vertex="1" parent="1">
          <mxGeometry x="519" y="1350" width="80" height="40" as="geometry" />
        </mxCell>
        <mxCell id="UK-q2pysJeKZqtUmhiG1-96" value="T8" style="rounded=0;whiteSpace=wrap;html=1;fillColor=#dae8fc;strokeColor=#6c8ebf;" vertex="1" parent="1">
          <mxGeometry x="599" y="1350" width="80" height="40" as="geometry" />
        </mxCell>
        <mxCell id="UK-q2pysJeKZqtUmhiG1-97" value="T9" style="rounded=0;whiteSpace=wrap;html=1;fillColor=#dae8fc;strokeColor=#6c8ebf;" vertex="1" parent="1">
          <mxGeometry x="679" y="1350" width="80" height="40" as="geometry" />
        </mxCell>
        <mxCell id="UK-q2pysJeKZqtUmhiG1-98" value="P1 (T7)" style="rounded=0;whiteSpace=wrap;html=1;fillColor=#d5e8d4;strokeColor=#82b366;" vertex="1" parent="1">
          <mxGeometry x="120" y="1320" width="480" height="20" as="geometry" />
        </mxCell>
        <mxCell id="UK-q2pysJeKZqtUmhiG1-99" value="P2 (T4)" style="rounded=0;whiteSpace=wrap;html=1;fillColor=#fff2cc;strokeColor=#d6b656;" vertex="1" parent="1">
          <mxGeometry x="199" y="1290" width="80" height="20" as="geometry" />
        </mxCell>
        <mxCell id="UK-q2pysJeKZqtUmhiG1-100" value="P3 (T1)" style="rounded=0;whiteSpace=wrap;html=1;fillColor=#fff2cc;strokeColor=#d6b656;" vertex="1" parent="1">
          <mxGeometry x="359" y="1260" width="80" height="20" as="geometry" />
        </mxCell>
        <mxCell id="UK-q2pysJeKZqtUmhiG1-101" value="P4 (T4)" style="rounded=0;whiteSpace=wrap;html=1;fillColor=#fff2cc;strokeColor=#d6b656;" vertex="1" parent="1">
          <mxGeometry x="439" y="1230" width="80" height="20" as="geometry" />
        </mxCell>
        <mxCell id="UK-q2pysJeKZqtUmhiG1-102" value="P1 (T7)" style="rounded=0;whiteSpace=wrap;html=1;fillColor=#fff2cc;strokeColor=#d6b656;" vertex="1" parent="1">
          <mxGeometry x="39" y="1320" width="80" height="10" as="geometry" />
        </mxCell>
        <mxCell id="UK-q2pysJeKZqtUmhiG1-103" value="T10" style="rounded=0;whiteSpace=wrap;html=1;fillColor=#dae8fc;strokeColor=#6c8ebf;" vertex="1" parent="1">
          <mxGeometry x="759" y="1350" width="80" height="40" as="geometry" />
        </mxCell>
        <mxCell id="UK-q2pysJeKZqtUmhiG1-104" value="T11" style="rounded=0;whiteSpace=wrap;html=1;fillColor=#dae8fc;strokeColor=#6c8ebf;" vertex="1" parent="1">
          <mxGeometry x="839" y="1350" width="80" height="40" as="geometry" />
        </mxCell>
        <mxCell id="UK-q2pysJeKZqtUmhiG1-106" value="P4 (T4)" style="rounded=0;whiteSpace=wrap;html=1;fillColor=#f5f5f5;strokeColor=#666666;fontColor=#333333;" vertex="1" parent="1">
          <mxGeometry x="519.5" y="1230" width="480.5" height="20" as="geometry" />
        </mxCell>
        <mxCell id="UK-q2pysJeKZqtUmhiG1-108" value="P3 (T1)" style="rounded=0;whiteSpace=wrap;html=1;fillColor=#d5e8d4;strokeColor=#82b366;" vertex="1" parent="1">
          <mxGeometry x="599" y="1260" width="80" height="20" as="geometry" />
        </mxCell>
        <mxCell id="UK-q2pysJeKZqtUmhiG1-109" value="T12" style="rounded=0;whiteSpace=wrap;html=1;fillColor=#dae8fc;strokeColor=#6c8ebf;" vertex="1" parent="1">
          <mxGeometry x="919" y="1350" width="80" height="40" as="geometry" />
        </mxCell>
        <mxCell id="UK-q2pysJeKZqtUmhiG1-111" value="T13" style="rounded=0;whiteSpace=wrap;html=1;fillColor=#dae8fc;strokeColor=#6c8ebf;" vertex="1" parent="1">
          <mxGeometry x="999" y="1350" width="80" height="40" as="geometry" />
        </mxCell>
        <mxCell id="UK-q2pysJeKZqtUmhiG1-112" value="T14" style="rounded=0;whiteSpace=wrap;html=1;fillColor=#dae8fc;strokeColor=#6c8ebf;" vertex="1" parent="1">
          <mxGeometry x="1079" y="1350" width="80" height="40" as="geometry" />
        </mxCell>
        <mxCell id="UK-q2pysJeKZqtUmhiG1-113" value="T15" style="rounded=0;whiteSpace=wrap;html=1;fillColor=#dae8fc;strokeColor=#6c8ebf;" vertex="1" parent="1">
          <mxGeometry x="1160" y="1350" width="80" height="40" as="geometry" />
        </mxCell>
        <mxCell id="UK-q2pysJeKZqtUmhiG1-114" value="T16" style="rounded=0;whiteSpace=wrap;html=1;fillColor=#dae8fc;strokeColor=#6c8ebf;" vertex="1" parent="1">
          <mxGeometry x="1240" y="1350" width="80" height="40" as="geometry" />
        </mxCell>
        <mxCell id="UK-q2pysJeKZqtUmhiG1-116" value="P2 (T4)" style="rounded=0;whiteSpace=wrap;html=1;fillColor=#f5f5f5;strokeColor=#666666;fontColor=#333333;" vertex="1" parent="1">
          <mxGeometry x="279" y="1290" width="401" height="20" as="geometry" />
        </mxCell>
        <mxCell id="UK-q2pysJeKZqtUmhiG1-123" value="Algoritmo SJF (Ejecutamos el proceso mas corto primero)" style="text;html=1;align=left;verticalAlign=middle;whiteSpace=wrap;rounded=0;" vertex="1" parent="1">
          <mxGeometry x="40" y="1190" width="320" height="30" as="geometry" />
        </mxCell>
        <mxCell id="UK-q2pysJeKZqtUmhiG1-160" value="P1 (T7)" style="rounded=0;whiteSpace=wrap;html=1;fillColor=#d5e8d4;strokeColor=#82b366;" vertex="1" parent="1">
          <mxGeometry x="39" y="1330" width="80" height="10" as="geometry" />
        </mxCell>
        <mxCell id="UK-q2pysJeKZqtUmhiG1-164" value="P1 (T7)" style="rounded=0;whiteSpace=wrap;html=1;fillColor=#d5e8d4;strokeColor=#82b366;" vertex="1" parent="1">
          <mxGeometry x="39" y="820" width="80" height="10" as="geometry" />
        </mxCell>
        <mxCell id="UK-q2pysJeKZqtUmhiG1-165" value="P1 (T7)" style="rounded=0;whiteSpace=wrap;html=1;fillColor=#d5e8d4;strokeColor=#82b366;" vertex="1" parent="1">
          <mxGeometry x="39" y="1070" width="80" height="10" as="geometry" />
        </mxCell>
        <mxCell id="UK-q2pysJeKZqtUmhiG1-168" value="P3 (T1)" style="rounded=0;whiteSpace=wrap;html=1;fillColor=#f5f5f5;strokeColor=#666666;fontColor=#333333;" vertex="1" parent="1">
          <mxGeometry x="440.5" y="1260" width="159.5" height="20" as="geometry" />
        </mxCell>
        <mxCell id="UK-q2pysJeKZqtUmhiG1-169" value="P2 (T4)" style="rounded=0;whiteSpace=wrap;html=1;fillColor=#d5e8d4;strokeColor=#82b366;" vertex="1" parent="1">
          <mxGeometry x="679.5" y="1290" width="320.5" height="20" as="geometry" />
        </mxCell>
        <mxCell id="UK-q2pysJeKZqtUmhiG1-170" value="P4 (T4)" style="rounded=0;whiteSpace=wrap;html=1;fillColor=#d5e8d4;strokeColor=#82b366;" vertex="1" parent="1">
          <mxGeometry x="1000" y="1230" width="320" height="20" as="geometry" />
        </mxCell>
        <mxCell id="UK-q2pysJeKZqtUmhiG1-172" value="T1" style="rounded=0;whiteSpace=wrap;html=1;fillColor=#dae8fc;strokeColor=#6c8ebf;" vertex="1" parent="1">
          <mxGeometry x="40" y="1600" width="80" height="40" as="geometry" />
        </mxCell>
        <mxCell id="UK-q2pysJeKZqtUmhiG1-173" value="T2" style="rounded=0;whiteSpace=wrap;html=1;fillColor=#dae8fc;strokeColor=#6c8ebf;" vertex="1" parent="1">
          <mxGeometry x="120" y="1600" width="80" height="40" as="geometry" />
        </mxCell>
        <mxCell id="UK-q2pysJeKZqtUmhiG1-174" value="T3" style="rounded=0;whiteSpace=wrap;html=1;fillColor=#dae8fc;strokeColor=#6c8ebf;" vertex="1" parent="1">
          <mxGeometry x="200" y="1600" width="80" height="40" as="geometry" />
        </mxCell>
        <mxCell id="UK-q2pysJeKZqtUmhiG1-175" value="T4" style="rounded=0;whiteSpace=wrap;html=1;fillColor=#dae8fc;strokeColor=#6c8ebf;" vertex="1" parent="1">
          <mxGeometry x="280" y="1600" width="80" height="40" as="geometry" />
        </mxCell>
        <mxCell id="UK-q2pysJeKZqtUmhiG1-176" value="T5" style="rounded=0;whiteSpace=wrap;html=1;fillColor=#dae8fc;strokeColor=#6c8ebf;" vertex="1" parent="1">
          <mxGeometry x="360" y="1600" width="80" height="40" as="geometry" />
        </mxCell>
        <mxCell id="UK-q2pysJeKZqtUmhiG1-177" value="T6" style="rounded=0;whiteSpace=wrap;html=1;fillColor=#dae8fc;strokeColor=#6c8ebf;" vertex="1" parent="1">
          <mxGeometry x="440" y="1600" width="80" height="40" as="geometry" />
        </mxCell>
        <mxCell id="UK-q2pysJeKZqtUmhiG1-178" value="T7" style="rounded=0;whiteSpace=wrap;html=1;fillColor=#dae8fc;strokeColor=#6c8ebf;" vertex="1" parent="1">
          <mxGeometry x="520" y="1600" width="80" height="40" as="geometry" />
        </mxCell>
        <mxCell id="UK-q2pysJeKZqtUmhiG1-179" value="T8" style="rounded=0;whiteSpace=wrap;html=1;fillColor=#dae8fc;strokeColor=#6c8ebf;" vertex="1" parent="1">
          <mxGeometry x="600" y="1600" width="80" height="40" as="geometry" />
        </mxCell>
        <mxCell id="UK-q2pysJeKZqtUmhiG1-180" value="T9" style="rounded=0;whiteSpace=wrap;html=1;fillColor=#dae8fc;strokeColor=#6c8ebf;" vertex="1" parent="1">
          <mxGeometry x="680" y="1600" width="80" height="40" as="geometry" />
        </mxCell>
        <mxCell id="UK-q2pysJeKZqtUmhiG1-181" value="P1 (T7)" style="rounded=0;whiteSpace=wrap;html=1;fillColor=#d5e8d4;strokeColor=#82b366;" vertex="1" parent="1">
          <mxGeometry x="121" y="1570" width="78" height="20" as="geometry" />
        </mxCell>
        <mxCell id="UK-q2pysJeKZqtUmhiG1-182" value="P2 (T4)" style="rounded=0;whiteSpace=wrap;html=1;fillColor=#fff2cc;strokeColor=#d6b656;" vertex="1" parent="1">
          <mxGeometry x="200" y="1540" width="80" height="10" as="geometry" />
        </mxCell>
        <mxCell id="UK-q2pysJeKZqtUmhiG1-183" value="P3 (T1)" style="rounded=0;whiteSpace=wrap;html=1;fillColor=#fff2cc;strokeColor=#d6b656;" vertex="1" parent="1">
          <mxGeometry x="360" y="1510" width="80" height="10" as="geometry" />
        </mxCell>
        <mxCell id="UK-q2pysJeKZqtUmhiG1-184" value="P4 (T4)" style="rounded=0;whiteSpace=wrap;html=1;fillColor=#fff2cc;strokeColor=#d6b656;" vertex="1" parent="1">
          <mxGeometry x="440" y="1480" width="80" height="20" as="geometry" />
        </mxCell>
        <mxCell id="UK-q2pysJeKZqtUmhiG1-185" value="P1 (T7)" style="rounded=0;whiteSpace=wrap;html=1;fillColor=#fff2cc;strokeColor=#d6b656;" vertex="1" parent="1">
          <mxGeometry x="40" y="1570" width="80" height="10" as="geometry" />
        </mxCell>
        <mxCell id="UK-q2pysJeKZqtUmhiG1-186" value="T10" style="rounded=0;whiteSpace=wrap;html=1;fillColor=#dae8fc;strokeColor=#6c8ebf;" vertex="1" parent="1">
          <mxGeometry x="760" y="1600" width="80" height="40" as="geometry" />
        </mxCell>
        <mxCell id="UK-q2pysJeKZqtUmhiG1-187" value="T11" style="rounded=0;whiteSpace=wrap;html=1;fillColor=#dae8fc;strokeColor=#6c8ebf;" vertex="1" parent="1">
          <mxGeometry x="840" y="1600" width="80" height="40" as="geometry" />
        </mxCell>
        <mxCell id="UK-q2pysJeKZqtUmhiG1-188" value="P4 (T4)" style="rounded=0;whiteSpace=wrap;html=1;fillColor=#f5f5f5;strokeColor=#666666;fontColor=#333333;" vertex="1" parent="1">
          <mxGeometry x="520.5" y="1480" width="79.5" height="20" as="geometry" />
        </mxCell>
        <mxCell id="UK-q2pysJeKZqtUmhiG1-189" value="P3 (T1)" style="rounded=0;whiteSpace=wrap;html=1;fillColor=#d5e8d4;strokeColor=#82b366;" vertex="1" parent="1">
          <mxGeometry x="360.5" y="1520" width="80" height="10" as="geometry" />
        </mxCell>
        <mxCell id="UK-q2pysJeKZqtUmhiG1-190" value="T12" style="rounded=0;whiteSpace=wrap;html=1;fillColor=#dae8fc;strokeColor=#6c8ebf;" vertex="1" parent="1">
          <mxGeometry x="920" y="1600" width="80" height="40" as="geometry" />
        </mxCell>
        <mxCell id="UK-q2pysJeKZqtUmhiG1-191" value="T13" style="rounded=0;whiteSpace=wrap;html=1;fillColor=#dae8fc;strokeColor=#6c8ebf;" vertex="1" parent="1">
          <mxGeometry x="1000" y="1600" width="80" height="40" as="geometry" />
        </mxCell>
        <mxCell id="UK-q2pysJeKZqtUmhiG1-192" value="T14" style="rounded=0;whiteSpace=wrap;html=1;fillColor=#dae8fc;strokeColor=#6c8ebf;" vertex="1" parent="1">
          <mxGeometry x="1080" y="1600" width="80" height="40" as="geometry" />
        </mxCell>
        <mxCell id="UK-q2pysJeKZqtUmhiG1-193" value="T15" style="rounded=0;whiteSpace=wrap;html=1;fillColor=#dae8fc;strokeColor=#6c8ebf;" vertex="1" parent="1">
          <mxGeometry x="1161" y="1600" width="80" height="40" as="geometry" />
        </mxCell>
        <mxCell id="UK-q2pysJeKZqtUmhiG1-194" value="T16" style="rounded=0;whiteSpace=wrap;html=1;fillColor=#dae8fc;strokeColor=#6c8ebf;" vertex="1" parent="1">
          <mxGeometry x="1241" y="1600" width="80" height="40" as="geometry" />
        </mxCell>
        <mxCell id="UK-q2pysJeKZqtUmhiG1-195" value="P2 (T4)" style="rounded=0;whiteSpace=wrap;html=1;fillColor=#f5f5f5;strokeColor=#666666;fontColor=#333333;" vertex="1" parent="1">
          <mxGeometry x="360.5" y="1540" width="79.5" height="20" as="geometry" />
        </mxCell>
        <mxCell id="UK-q2pysJeKZqtUmhiG1-196" value="Algoritmo SRTF (Ejecutamos el proceso que lleve menos tiempo terminar)" style="text;html=1;align=left;verticalAlign=middle;whiteSpace=wrap;rounded=0;" vertex="1" parent="1">
          <mxGeometry x="41" y="1440" width="399" height="30" as="geometry" />
        </mxCell>
        <mxCell id="UK-q2pysJeKZqtUmhiG1-197" value="P1 (T7)" style="rounded=0;whiteSpace=wrap;html=1;fillColor=#d5e8d4;strokeColor=#82b366;" vertex="1" parent="1">
          <mxGeometry x="40" y="1580" width="80" height="10" as="geometry" />
        </mxCell>
        <mxCell id="UK-q2pysJeKZqtUmhiG1-199" value="P2 (T4)" style="rounded=0;whiteSpace=wrap;html=1;fillColor=#d5e8d4;strokeColor=#82b366;" vertex="1" parent="1">
          <mxGeometry x="440.5" y="1540" width="159.5" height="20" as="geometry" />
        </mxCell>
        <mxCell id="UK-q2pysJeKZqtUmhiG1-200" value="P4 (T4)" style="rounded=0;whiteSpace=wrap;html=1;fillColor=#d5e8d4;strokeColor=#82b366;" vertex="1" parent="1">
          <mxGeometry x="601.25" y="1480" width="320" height="20" as="geometry" />
        </mxCell>
        <mxCell id="UK-q2pysJeKZqtUmhiG1-203" value="P1 (T7)" style="rounded=0;whiteSpace=wrap;html=1;fillColor=#f5f5f5;strokeColor=#666666;fontColor=#333333;" vertex="1" parent="1">
          <mxGeometry x="200" y="1570" width="720" height="20" as="geometry" />
        </mxCell>
        <mxCell id="UK-q2pysJeKZqtUmhiG1-204" value="P1 (T7)" style="rounded=0;whiteSpace=wrap;html=1;fillColor=#d5e8d4;strokeColor=#82b366;" vertex="1" parent="1">
          <mxGeometry x="920.5" y="1570" width="399.5" height="20" as="geometry" />
        </mxCell>
        <mxCell id="UK-q2pysJeKZqtUmhiG1-205" value="P2 (T4)" style="rounded=0;whiteSpace=wrap;html=1;fillColor=#d5e8d4;strokeColor=#82b366;" vertex="1" parent="1">
          <mxGeometry x="279" y="1540" width="81" height="20" as="geometry" />
        </mxCell>
        <mxCell id="UK-q2pysJeKZqtUmhiG1-206" value="P2 (T4)" style="rounded=0;whiteSpace=wrap;html=1;fillColor=#d5e8d4;strokeColor=#82b366;" vertex="1" parent="1">
          <mxGeometry x="199" y="1550" width="80" height="10" as="geometry" />
        </mxCell>
        <mxCell id="UK-q2pysJeKZqtUmhiG1-207" value="T1" style="rounded=0;whiteSpace=wrap;html=1;fillColor=#dae8fc;strokeColor=#6c8ebf;" vertex="1" parent="1">
          <mxGeometry x="40" y="1830" width="80" height="40" as="geometry" />
        </mxCell>
        <mxCell id="UK-q2pysJeKZqtUmhiG1-208" value="T2" style="rounded=0;whiteSpace=wrap;html=1;fillColor=#dae8fc;strokeColor=#6c8ebf;" vertex="1" parent="1">
          <mxGeometry x="120" y="1830" width="80" height="40" as="geometry" />
        </mxCell>
        <mxCell id="UK-q2pysJeKZqtUmhiG1-209" value="T3" style="rounded=0;whiteSpace=wrap;html=1;fillColor=#dae8fc;strokeColor=#6c8ebf;" vertex="1" parent="1">
          <mxGeometry x="200" y="1830" width="80" height="40" as="geometry" />
        </mxCell>
        <mxCell id="UK-q2pysJeKZqtUmhiG1-210" value="T4" style="rounded=0;whiteSpace=wrap;html=1;fillColor=#dae8fc;strokeColor=#6c8ebf;" vertex="1" parent="1">
          <mxGeometry x="280" y="1830" width="80" height="40" as="geometry" />
        </mxCell>
        <mxCell id="UK-q2pysJeKZqtUmhiG1-211" value="T5" style="rounded=0;whiteSpace=wrap;html=1;fillColor=#dae8fc;strokeColor=#6c8ebf;" vertex="1" parent="1">
          <mxGeometry x="360" y="1830" width="80" height="40" as="geometry" />
        </mxCell>
        <mxCell id="UK-q2pysJeKZqtUmhiG1-212" value="T6" style="rounded=0;whiteSpace=wrap;html=1;fillColor=#dae8fc;strokeColor=#6c8ebf;" vertex="1" parent="1">
          <mxGeometry x="440" y="1830" width="80" height="40" as="geometry" />
        </mxCell>
        <mxCell id="UK-q2pysJeKZqtUmhiG1-213" value="T7" style="rounded=0;whiteSpace=wrap;html=1;fillColor=#dae8fc;strokeColor=#6c8ebf;" vertex="1" parent="1">
          <mxGeometry x="520" y="1830" width="80" height="40" as="geometry" />
        </mxCell>
        <mxCell id="UK-q2pysJeKZqtUmhiG1-214" value="T8" style="rounded=0;whiteSpace=wrap;html=1;fillColor=#dae8fc;strokeColor=#6c8ebf;" vertex="1" parent="1">
          <mxGeometry x="600" y="1830" width="80" height="40" as="geometry" />
        </mxCell>
        <mxCell id="UK-q2pysJeKZqtUmhiG1-215" value="T9" style="rounded=0;whiteSpace=wrap;html=1;fillColor=#dae8fc;strokeColor=#6c8ebf;" vertex="1" parent="1">
          <mxGeometry x="680" y="1830" width="80" height="40" as="geometry" />
        </mxCell>
        <mxCell id="UK-q2pysJeKZqtUmhiG1-216" value="P1 (T7)" style="rounded=0;whiteSpace=wrap;html=1;fillColor=#d5e8d4;strokeColor=#82b366;" vertex="1" parent="1">
          <mxGeometry x="121" y="1800" width="78" height="20" as="geometry" />
        </mxCell>
        <mxCell id="UK-q2pysJeKZqtUmhiG1-217" value="P2 (T4)" style="rounded=0;whiteSpace=wrap;html=1;fillColor=#fff2cc;strokeColor=#d6b656;" vertex="1" parent="1">
          <mxGeometry x="200" y="1770" width="80" height="10" as="geometry" />
        </mxCell>
        <mxCell id="UK-q2pysJeKZqtUmhiG1-218" value="P3 (T1)" style="rounded=0;whiteSpace=wrap;html=1;fillColor=#fff2cc;strokeColor=#d6b656;" vertex="1" parent="1">
          <mxGeometry x="360" y="1740" width="80" height="10" as="geometry" />
        </mxCell>
        <mxCell id="UK-q2pysJeKZqtUmhiG1-219" value="P4 (T4)" style="rounded=0;whiteSpace=wrap;html=1;fillColor=#fff2cc;strokeColor=#d6b656;" vertex="1" parent="1">
          <mxGeometry x="440" y="1710" width="80" height="20" as="geometry" />
        </mxCell>
        <mxCell id="UK-q2pysJeKZqtUmhiG1-220" value="P1 (T7)" style="rounded=0;whiteSpace=wrap;html=1;fillColor=#fff2cc;strokeColor=#d6b656;" vertex="1" parent="1">
          <mxGeometry x="40" y="1800" width="80" height="10" as="geometry" />
        </mxCell>
        <mxCell id="UK-q2pysJeKZqtUmhiG1-221" value="T10" style="rounded=0;whiteSpace=wrap;html=1;fillColor=#dae8fc;strokeColor=#6c8ebf;" vertex="1" parent="1">
          <mxGeometry x="760" y="1830" width="80" height="40" as="geometry" />
        </mxCell>
        <mxCell id="UK-q2pysJeKZqtUmhiG1-222" value="T11" style="rounded=0;whiteSpace=wrap;html=1;fillColor=#dae8fc;strokeColor=#6c8ebf;" vertex="1" parent="1">
          <mxGeometry x="840" y="1830" width="80" height="40" as="geometry" />
        </mxCell>
        <mxCell id="UK-q2pysJeKZqtUmhiG1-223" value="P4 (T4)" style="rounded=0;whiteSpace=wrap;html=1;fillColor=#f5f5f5;strokeColor=#666666;fontColor=#333333;" vertex="1" parent="1">
          <mxGeometry x="520.5" y="1710" width="79.5" height="20" as="geometry" />
        </mxCell>
        <mxCell id="UK-q2pysJeKZqtUmhiG1-224" value="P3 (T1)" style="rounded=0;whiteSpace=wrap;html=1;fillColor=#d5e8d4;strokeColor=#82b366;" vertex="1" parent="1">
          <mxGeometry x="360.5" y="1750" width="80" height="10" as="geometry" />
        </mxCell>
        <mxCell id="UK-q2pysJeKZqtUmhiG1-225" value="T12" style="rounded=0;whiteSpace=wrap;html=1;fillColor=#dae8fc;strokeColor=#6c8ebf;" vertex="1" parent="1">
          <mxGeometry x="920" y="1830" width="80" height="40" as="geometry" />
        </mxCell>
        <mxCell id="UK-q2pysJeKZqtUmhiG1-226" value="T13" style="rounded=0;whiteSpace=wrap;html=1;fillColor=#dae8fc;strokeColor=#6c8ebf;" vertex="1" parent="1">
          <mxGeometry x="1000" y="1830" width="80" height="40" as="geometry" />
        </mxCell>
        <mxCell id="UK-q2pysJeKZqtUmhiG1-227" value="T14" style="rounded=0;whiteSpace=wrap;html=1;fillColor=#dae8fc;strokeColor=#6c8ebf;" vertex="1" parent="1">
          <mxGeometry x="1080" y="1830" width="80" height="40" as="geometry" />
        </mxCell>
        <mxCell id="UK-q2pysJeKZqtUmhiG1-228" value="T15" style="rounded=0;whiteSpace=wrap;html=1;fillColor=#dae8fc;strokeColor=#6c8ebf;" vertex="1" parent="1">
          <mxGeometry x="1161" y="1830" width="80" height="40" as="geometry" />
        </mxCell>
        <mxCell id="UK-q2pysJeKZqtUmhiG1-229" value="T16" style="rounded=0;whiteSpace=wrap;html=1;fillColor=#dae8fc;strokeColor=#6c8ebf;" vertex="1" parent="1">
          <mxGeometry x="1241" y="1830" width="80" height="40" as="geometry" />
        </mxCell>
        <mxCell id="UK-q2pysJeKZqtUmhiG1-230" value="P2 (T4)" style="rounded=0;whiteSpace=wrap;html=1;fillColor=#f5f5f5;strokeColor=#666666;fontColor=#333333;" vertex="1" parent="1">
          <mxGeometry x="360.5" y="1770" width="79.5" height="20" as="geometry" />
        </mxCell>
        <mxCell id="UK-q2pysJeKZqtUmhiG1-231" value="P1 (T7)" style="rounded=0;whiteSpace=wrap;html=1;fillColor=#d5e8d4;strokeColor=#82b366;" vertex="1" parent="1">
          <mxGeometry x="40" y="1810" width="80" height="10" as="geometry" />
        </mxCell>
        <mxCell id="UK-q2pysJeKZqtUmhiG1-232" value="P2 (T4)" style="rounded=0;whiteSpace=wrap;html=1;fillColor=#d5e8d4;strokeColor=#82b366;" vertex="1" parent="1">
          <mxGeometry x="440.5" y="1770" width="159.5" height="20" as="geometry" />
        </mxCell>
        <mxCell id="UK-q2pysJeKZqtUmhiG1-233" value="P4 (T4)" style="rounded=0;whiteSpace=wrap;html=1;fillColor=#d5e8d4;strokeColor=#82b366;" vertex="1" parent="1">
          <mxGeometry x="601.25" y="1710" width="320" height="20" as="geometry" />
        </mxCell>
        <mxCell id="UK-q2pysJeKZqtUmhiG1-234" value="P1 (T7)" style="rounded=0;whiteSpace=wrap;html=1;fillColor=#f5f5f5;strokeColor=#666666;fontColor=#333333;" vertex="1" parent="1">
          <mxGeometry x="200" y="1800" width="720" height="20" as="geometry" />
        </mxCell>
        <mxCell id="UK-q2pysJeKZqtUmhiG1-235" value="P1 (T7)" style="rounded=0;whiteSpace=wrap;html=1;fillColor=#d5e8d4;strokeColor=#82b366;" vertex="1" parent="1">
          <mxGeometry x="920.5" y="1800" width="399.5" height="20" as="geometry" />
        </mxCell>
        <mxCell id="UK-q2pysJeKZqtUmhiG1-236" value="P2 (T4)" style="rounded=0;whiteSpace=wrap;html=1;fillColor=#d5e8d4;strokeColor=#82b366;" vertex="1" parent="1">
          <mxGeometry x="279" y="1770" width="81" height="20" as="geometry" />
        </mxCell>
        <mxCell id="UK-q2pysJeKZqtUmhiG1-237" value="P2 (T4)" style="rounded=0;whiteSpace=wrap;html=1;fillColor=#d5e8d4;strokeColor=#82b366;" vertex="1" parent="1">
          <mxGeometry x="199" y="1780" width="80" height="10" as="geometry" />
        </mxCell>
        <mxCell id="UK-q2pysJeKZqtUmhiG1-238" value="T1" style="rounded=0;whiteSpace=wrap;html=1;fillColor=#dae8fc;strokeColor=#6c8ebf;" vertex="1" parent="1">
          <mxGeometry x="1521" y="870" width="80" height="40" as="geometry" />
        </mxCell>
        <mxCell id="UK-q2pysJeKZqtUmhiG1-239" value="T2" style="rounded=0;whiteSpace=wrap;html=1;fillColor=#dae8fc;strokeColor=#6c8ebf;" vertex="1" parent="1">
          <mxGeometry x="1601" y="870" width="80" height="40" as="geometry" />
        </mxCell>
        <mxCell id="UK-q2pysJeKZqtUmhiG1-240" value="T3" style="rounded=0;whiteSpace=wrap;html=1;fillColor=#dae8fc;strokeColor=#6c8ebf;" vertex="1" parent="1">
          <mxGeometry x="1681" y="870" width="80" height="40" as="geometry" />
        </mxCell>
        <mxCell id="UK-q2pysJeKZqtUmhiG1-241" value="T4" style="rounded=0;whiteSpace=wrap;html=1;fillColor=#dae8fc;strokeColor=#6c8ebf;" vertex="1" parent="1">
          <mxGeometry x="1761" y="870" width="80" height="40" as="geometry" />
        </mxCell>
        <mxCell id="UK-q2pysJeKZqtUmhiG1-242" value="T5" style="rounded=0;whiteSpace=wrap;html=1;fillColor=#dae8fc;strokeColor=#6c8ebf;" vertex="1" parent="1">
          <mxGeometry x="1841" y="870" width="80" height="40" as="geometry" />
        </mxCell>
        <mxCell id="UK-q2pysJeKZqtUmhiG1-243" value="T6" style="rounded=0;whiteSpace=wrap;html=1;fillColor=#dae8fc;strokeColor=#6c8ebf;" vertex="1" parent="1">
          <mxGeometry x="1921" y="870" width="80" height="40" as="geometry" />
        </mxCell>
        <mxCell id="UK-q2pysJeKZqtUmhiG1-244" value="T7" style="rounded=0;whiteSpace=wrap;html=1;fillColor=#dae8fc;strokeColor=#6c8ebf;" vertex="1" parent="1">
          <mxGeometry x="2001" y="870" width="80" height="40" as="geometry" />
        </mxCell>
        <mxCell id="UK-q2pysJeKZqtUmhiG1-245" value="T8" style="rounded=0;whiteSpace=wrap;html=1;fillColor=#dae8fc;strokeColor=#6c8ebf;" vertex="1" parent="1">
          <mxGeometry x="2081" y="870" width="80" height="40" as="geometry" />
        </mxCell>
        <mxCell id="UK-q2pysJeKZqtUmhiG1-246" value="T9" style="rounded=0;whiteSpace=wrap;html=1;fillColor=#dae8fc;strokeColor=#6c8ebf;" vertex="1" parent="1">
          <mxGeometry x="2161" y="870" width="80" height="40" as="geometry" />
        </mxCell>
        <mxCell id="UK-q2pysJeKZqtUmhiG1-247" value="A (T3)" style="rounded=0;whiteSpace=wrap;html=1;fillColor=#d5e8d4;strokeColor=#82b366;" vertex="1" parent="1">
          <mxGeometry x="1601" y="840" width="159" height="20" as="geometry" />
        </mxCell>
        <mxCell id="UK-q2pysJeKZqtUmhiG1-248" value="B (T5)" style="rounded=0;whiteSpace=wrap;html=1;fillColor=#fff2cc;strokeColor=#d6b656;" vertex="1" parent="1">
          <mxGeometry x="1600" y="810" width="80" height="20" as="geometry" />
        </mxCell>
        <mxCell id="UK-q2pysJeKZqtUmhiG1-249" value="C (T6)" style="rounded=0;whiteSpace=wrap;html=1;fillColor=#fff2cc;strokeColor=#d6b656;" vertex="1" parent="1">
          <mxGeometry x="1920" y="780" width="80" height="20" as="geometry" />
        </mxCell>
        <mxCell id="UK-q2pysJeKZqtUmhiG1-250" value="D (T4)" style="rounded=0;whiteSpace=wrap;html=1;fillColor=#fff2cc;strokeColor=#d6b656;" vertex="1" parent="1">
          <mxGeometry x="2240" y="750" width="80" height="20" as="geometry" />
        </mxCell>
        <mxCell id="UK-q2pysJeKZqtUmhiG1-251" value="A (T3)" style="rounded=0;whiteSpace=wrap;html=1;fillColor=#fff2cc;strokeColor=#d6b656;" vertex="1" parent="1">
          <mxGeometry x="1520" y="840" width="80" height="10" as="geometry" />
        </mxCell>
        <mxCell id="UK-q2pysJeKZqtUmhiG1-253" value="T10" style="rounded=0;whiteSpace=wrap;html=1;fillColor=#dae8fc;strokeColor=#6c8ebf;" vertex="1" parent="1">
          <mxGeometry x="2241" y="870" width="80" height="40" as="geometry" />
        </mxCell>
        <mxCell id="UK-q2pysJeKZqtUmhiG1-254" value="T11" style="rounded=0;whiteSpace=wrap;html=1;fillColor=#dae8fc;strokeColor=#6c8ebf;" vertex="1" parent="1">
          <mxGeometry x="2321" y="870" width="80" height="40" as="geometry" />
        </mxCell>
        <mxCell id="UK-q2pysJeKZqtUmhiG1-259" value="T12" style="rounded=0;whiteSpace=wrap;html=1;fillColor=#dae8fc;strokeColor=#6c8ebf;" vertex="1" parent="1">
          <mxGeometry x="2401" y="870" width="80" height="40" as="geometry" />
        </mxCell>
        <mxCell id="UK-q2pysJeKZqtUmhiG1-261" value="T13" style="rounded=0;whiteSpace=wrap;html=1;fillColor=#dae8fc;strokeColor=#6c8ebf;" vertex="1" parent="1">
          <mxGeometry x="2481" y="870" width="80" height="40" as="geometry" />
        </mxCell>
        <mxCell id="UK-q2pysJeKZqtUmhiG1-262" value="T14" style="rounded=0;whiteSpace=wrap;html=1;fillColor=#dae8fc;strokeColor=#6c8ebf;" vertex="1" parent="1">
          <mxGeometry x="2561" y="870" width="80" height="40" as="geometry" />
        </mxCell>
        <mxCell id="UK-q2pysJeKZqtUmhiG1-263" value="T15" style="rounded=0;whiteSpace=wrap;html=1;fillColor=#dae8fc;strokeColor=#6c8ebf;" vertex="1" parent="1">
          <mxGeometry x="2641.5" y="870" width="80" height="40" as="geometry" />
        </mxCell>
        <mxCell id="UK-q2pysJeKZqtUmhiG1-264" value="T16" style="rounded=0;whiteSpace=wrap;html=1;fillColor=#dae8fc;strokeColor=#6c8ebf;" vertex="1" parent="1">
          <mxGeometry x="2722" y="870" width="80" height="40" as="geometry" />
        </mxCell>
        <mxCell id="UK-q2pysJeKZqtUmhiG1-295" value="Algoritmo FIFO (El primero que entra el primero que sale)" style="text;html=1;align=left;verticalAlign=middle;whiteSpace=wrap;rounded=0;" vertex="1" parent="1">
          <mxGeometry x="1520" y="670" width="320" height="30" as="geometry" />
        </mxCell>
        <mxCell id="UK-q2pysJeKZqtUmhiG1-296" value="Algoritmo RR q=3 (Round Robin quantum = 3)" style="text;html=1;align=left;verticalAlign=middle;whiteSpace=wrap;rounded=0;" vertex="1" parent="1">
          <mxGeometry x="1521" y="960" width="290" height="30" as="geometry" />
        </mxCell>
        <mxCell id="UK-q2pysJeKZqtUmhiG1-321" value="Algoritmo SJF (Ejecutamos el proceso mas corto primero)" style="text;html=1;align=left;verticalAlign=middle;whiteSpace=wrap;rounded=0;" vertex="1" parent="1">
          <mxGeometry x="1521" y="1680" width="320" height="30" as="geometry" />
        </mxCell>
        <mxCell id="UK-q2pysJeKZqtUmhiG1-352" value="Algoritmo SRTF (Ejecutamos el proceso que lleve menos tiempo terminar priorizamos en ejecución)" style="text;html=1;align=left;verticalAlign=middle;whiteSpace=wrap;rounded=0;" vertex="1" parent="1">
          <mxGeometry x="1522" y="1930" width="538" height="30" as="geometry" />
        </mxCell>
        <mxCell id="UK-q2pysJeKZqtUmhiG1-423" value="Algoritmo RR q=2 (Round Robin quantum = 2)" style="text;html=1;align=left;verticalAlign=middle;whiteSpace=wrap;rounded=0;" vertex="1" parent="1">
          <mxGeometry x="1522" y="1280" width="290" height="30" as="geometry" />
        </mxCell>
        <mxCell id="UK-q2pysJeKZqtUmhiG1-427" value="A (T3)" style="rounded=0;whiteSpace=wrap;html=1;fillColor=#d5e8d4;strokeColor=#82b366;" vertex="1" parent="1">
          <mxGeometry x="1520" y="850" width="80" height="10" as="geometry" />
        </mxCell>
        <mxCell id="UK-q2pysJeKZqtUmhiG1-428" value="B (T5)" style="rounded=0;whiteSpace=wrap;html=1;fillColor=#f5f5f5;strokeColor=#666666;fontColor=#333333;" vertex="1" parent="1">
          <mxGeometry x="1680" y="810" width="80" height="20" as="geometry" />
        </mxCell>
        <mxCell id="UK-q2pysJeKZqtUmhiG1-429" value="E (T2)" style="rounded=0;whiteSpace=wrap;html=1;fillColor=#fff2cc;strokeColor=#d6b656;" vertex="1" parent="1">
          <mxGeometry x="2800" y="720" width="80" height="20" as="geometry" />
        </mxCell>
        <mxCell id="UK-q2pysJeKZqtUmhiG1-430" value="B (T5)" style="rounded=0;whiteSpace=wrap;html=1;fillColor=#d5e8d4;strokeColor=#82b366;" vertex="1" parent="1">
          <mxGeometry x="1760" y="810" width="400" height="20" as="geometry" />
        </mxCell>
        <mxCell id="UK-q2pysJeKZqtUmhiG1-431" value="C (T6)" style="rounded=0;whiteSpace=wrap;html=1;fillColor=#f5f5f5;strokeColor=#666666;fontColor=#333333;" vertex="1" parent="1">
          <mxGeometry x="2000.5" y="780" width="159.5" height="20" as="geometry" />
        </mxCell>
        <mxCell id="UK-q2pysJeKZqtUmhiG1-432" value="C (T6)" style="rounded=0;whiteSpace=wrap;html=1;fillColor=#d5e8d4;strokeColor=#82b366;" vertex="1" parent="1">
          <mxGeometry x="2160" y="780" width="480" height="20" as="geometry" />
        </mxCell>
        <mxCell id="UK-q2pysJeKZqtUmhiG1-433" value="D (T4)" style="rounded=0;whiteSpace=wrap;html=1;fillColor=#f5f5f5;strokeColor=#666666;fontColor=#333333;" vertex="1" parent="1">
          <mxGeometry x="2320" y="750" width="320" height="20" as="geometry" />
        </mxCell>
        <mxCell id="UK-q2pysJeKZqtUmhiG1-434" value="D (T4)" style="rounded=0;whiteSpace=wrap;html=1;fillColor=#d5e8d4;strokeColor=#82b366;" vertex="1" parent="1">
          <mxGeometry x="2639.5" y="750" width="320" height="20" as="geometry" />
        </mxCell>
        <mxCell id="UK-q2pysJeKZqtUmhiG1-435" value="T17" style="rounded=0;whiteSpace=wrap;html=1;fillColor=#dae8fc;strokeColor=#6c8ebf;" vertex="1" parent="1">
          <mxGeometry x="2802" y="870" width="80" height="40" as="geometry" />
        </mxCell>
        <mxCell id="UK-q2pysJeKZqtUmhiG1-436" value="T18" style="rounded=0;whiteSpace=wrap;html=1;fillColor=#dae8fc;strokeColor=#6c8ebf;" vertex="1" parent="1">
          <mxGeometry x="2882" y="870" width="80" height="40" as="geometry" />
        </mxCell>
        <mxCell id="UK-q2pysJeKZqtUmhiG1-437" value="T19" style="rounded=0;whiteSpace=wrap;html=1;fillColor=#dae8fc;strokeColor=#6c8ebf;" vertex="1" parent="1">
          <mxGeometry x="2962" y="870" width="80" height="40" as="geometry" />
        </mxCell>
        <mxCell id="UK-q2pysJeKZqtUmhiG1-438" value="T20" style="rounded=0;whiteSpace=wrap;html=1;fillColor=#dae8fc;strokeColor=#6c8ebf;" vertex="1" parent="1">
          <mxGeometry x="3042" y="870" width="80" height="40" as="geometry" />
        </mxCell>
        <mxCell id="UK-q2pysJeKZqtUmhiG1-439" value="E (T2)" style="rounded=0;whiteSpace=wrap;html=1;fillColor=#f5f5f5;strokeColor=#666666;fontColor=#333333;" vertex="1" parent="1">
          <mxGeometry x="2879.5" y="720" width="80" height="20" as="geometry" />
        </mxCell>
        <mxCell id="UK-q2pysJeKZqtUmhiG1-440" value="E (T2)" style="rounded=0;whiteSpace=wrap;html=1;fillColor=#d5e8d4;strokeColor=#82b366;" vertex="1" parent="1">
          <mxGeometry x="2959.5" y="720" width="160.5" height="20" as="geometry" />
        </mxCell>
        <mxCell id="UK-q2pysJeKZqtUmhiG1-442" value="T1" style="rounded=0;whiteSpace=wrap;html=1;fillColor=#dae8fc;strokeColor=#6c8ebf;" vertex="1" parent="1">
          <mxGeometry x="1521" y="1150" width="80" height="40" as="geometry" />
        </mxCell>
        <mxCell id="UK-q2pysJeKZqtUmhiG1-443" value="T2" style="rounded=0;whiteSpace=wrap;html=1;fillColor=#dae8fc;strokeColor=#6c8ebf;" vertex="1" parent="1">
          <mxGeometry x="1601" y="1150" width="80" height="40" as="geometry" />
        </mxCell>
        <mxCell id="UK-q2pysJeKZqtUmhiG1-444" value="T3" style="rounded=0;whiteSpace=wrap;html=1;fillColor=#dae8fc;strokeColor=#6c8ebf;" vertex="1" parent="1">
          <mxGeometry x="1681" y="1150" width="80" height="40" as="geometry" />
        </mxCell>
        <mxCell id="UK-q2pysJeKZqtUmhiG1-445" value="T4" style="rounded=0;whiteSpace=wrap;html=1;fillColor=#dae8fc;strokeColor=#6c8ebf;" vertex="1" parent="1">
          <mxGeometry x="1761" y="1150" width="80" height="40" as="geometry" />
        </mxCell>
        <mxCell id="UK-q2pysJeKZqtUmhiG1-446" value="T5" style="rounded=0;whiteSpace=wrap;html=1;fillColor=#dae8fc;strokeColor=#6c8ebf;" vertex="1" parent="1">
          <mxGeometry x="1841" y="1150" width="80" height="40" as="geometry" />
        </mxCell>
        <mxCell id="UK-q2pysJeKZqtUmhiG1-447" value="T6" style="rounded=0;whiteSpace=wrap;html=1;fillColor=#dae8fc;strokeColor=#6c8ebf;" vertex="1" parent="1">
          <mxGeometry x="1921" y="1150" width="80" height="40" as="geometry" />
        </mxCell>
        <mxCell id="UK-q2pysJeKZqtUmhiG1-448" value="T7" style="rounded=0;whiteSpace=wrap;html=1;fillColor=#dae8fc;strokeColor=#6c8ebf;" vertex="1" parent="1">
          <mxGeometry x="2001" y="1150" width="80" height="40" as="geometry" />
        </mxCell>
        <mxCell id="UK-q2pysJeKZqtUmhiG1-449" value="T8" style="rounded=0;whiteSpace=wrap;html=1;fillColor=#dae8fc;strokeColor=#6c8ebf;" vertex="1" parent="1">
          <mxGeometry x="2081" y="1150" width="80" height="40" as="geometry" />
        </mxCell>
        <mxCell id="UK-q2pysJeKZqtUmhiG1-450" value="T9" style="rounded=0;whiteSpace=wrap;html=1;fillColor=#dae8fc;strokeColor=#6c8ebf;" vertex="1" parent="1">
          <mxGeometry x="2161" y="1150" width="80" height="40" as="geometry" />
        </mxCell>
        <mxCell id="UK-q2pysJeKZqtUmhiG1-451" value="A (T3)" style="rounded=0;whiteSpace=wrap;html=1;fillColor=#d5e8d4;strokeColor=#82b366;" vertex="1" parent="1">
          <mxGeometry x="1601" y="1120" width="159" height="20" as="geometry" />
        </mxCell>
        <mxCell id="UK-q2pysJeKZqtUmhiG1-452" value="B (T5)" style="rounded=0;whiteSpace=wrap;html=1;fillColor=#fff2cc;strokeColor=#d6b656;" vertex="1" parent="1">
          <mxGeometry x="1600" y="1090" width="80" height="20" as="geometry" />
        </mxCell>
        <mxCell id="UK-q2pysJeKZqtUmhiG1-453" value="C (T6)" style="rounded=0;whiteSpace=wrap;html=1;fillColor=#fff2cc;strokeColor=#d6b656;" vertex="1" parent="1">
          <mxGeometry x="1920" y="1060" width="80" height="20" as="geometry" />
        </mxCell>
        <mxCell id="UK-q2pysJeKZqtUmhiG1-454" value="D (T4)" style="rounded=0;whiteSpace=wrap;html=1;fillColor=#fff2cc;strokeColor=#d6b656;" vertex="1" parent="1">
          <mxGeometry x="2240" y="1030" width="80" height="20" as="geometry" />
        </mxCell>
        <mxCell id="UK-q2pysJeKZqtUmhiG1-455" value="A (T3)" style="rounded=0;whiteSpace=wrap;html=1;fillColor=#fff2cc;strokeColor=#d6b656;" vertex="1" parent="1">
          <mxGeometry x="1520" y="1120" width="80" height="10" as="geometry" />
        </mxCell>
        <mxCell id="UK-q2pysJeKZqtUmhiG1-456" value="T10" style="rounded=0;whiteSpace=wrap;html=1;fillColor=#dae8fc;strokeColor=#6c8ebf;" vertex="1" parent="1">
          <mxGeometry x="2241" y="1150" width="80" height="40" as="geometry" />
        </mxCell>
        <mxCell id="UK-q2pysJeKZqtUmhiG1-457" value="T11" style="rounded=0;whiteSpace=wrap;html=1;fillColor=#dae8fc;strokeColor=#6c8ebf;" vertex="1" parent="1">
          <mxGeometry x="2321" y="1150" width="80" height="40" as="geometry" />
        </mxCell>
        <mxCell id="UK-q2pysJeKZqtUmhiG1-458" value="T12" style="rounded=0;whiteSpace=wrap;html=1;fillColor=#dae8fc;strokeColor=#6c8ebf;" vertex="1" parent="1">
          <mxGeometry x="2401" y="1150" width="80" height="40" as="geometry" />
        </mxCell>
        <mxCell id="UK-q2pysJeKZqtUmhiG1-459" value="T13" style="rounded=0;whiteSpace=wrap;html=1;fillColor=#dae8fc;strokeColor=#6c8ebf;" vertex="1" parent="1">
          <mxGeometry x="2481" y="1150" width="80" height="40" as="geometry" />
        </mxCell>
        <mxCell id="UK-q2pysJeKZqtUmhiG1-460" value="T14" style="rounded=0;whiteSpace=wrap;html=1;fillColor=#dae8fc;strokeColor=#6c8ebf;" vertex="1" parent="1">
          <mxGeometry x="2561" y="1150" width="80" height="40" as="geometry" />
        </mxCell>
        <mxCell id="UK-q2pysJeKZqtUmhiG1-461" value="T15" style="rounded=0;whiteSpace=wrap;html=1;fillColor=#dae8fc;strokeColor=#6c8ebf;" vertex="1" parent="1">
          <mxGeometry x="2641.5" y="1150" width="80" height="40" as="geometry" />
        </mxCell>
        <mxCell id="UK-q2pysJeKZqtUmhiG1-462" value="T16" style="rounded=0;whiteSpace=wrap;html=1;fillColor=#dae8fc;strokeColor=#6c8ebf;" vertex="1" parent="1">
          <mxGeometry x="2722" y="1150" width="80" height="40" as="geometry" />
        </mxCell>
        <mxCell id="UK-q2pysJeKZqtUmhiG1-463" value="A (T3)" style="rounded=0;whiteSpace=wrap;html=1;fillColor=#d5e8d4;strokeColor=#82b366;" vertex="1" parent="1">
          <mxGeometry x="1520" y="1130" width="80" height="10" as="geometry" />
        </mxCell>
        <mxCell id="UK-q2pysJeKZqtUmhiG1-464" value="B (T5)" style="rounded=0;whiteSpace=wrap;html=1;fillColor=#f5f5f5;strokeColor=#666666;fontColor=#333333;" vertex="1" parent="1">
          <mxGeometry x="1680" y="1090" width="80" height="20" as="geometry" />
        </mxCell>
        <mxCell id="UK-q2pysJeKZqtUmhiG1-465" value="E (T2)" style="rounded=0;whiteSpace=wrap;html=1;fillColor=#fff2cc;strokeColor=#d6b656;" vertex="1" parent="1">
          <mxGeometry x="2800" y="1000" width="80" height="20" as="geometry" />
        </mxCell>
        <mxCell id="UK-q2pysJeKZqtUmhiG1-466" value="B (T5)" style="rounded=0;whiteSpace=wrap;html=1;fillColor=#d5e8d4;strokeColor=#82b366;" vertex="1" parent="1">
          <mxGeometry x="1760" y="1090" width="240" height="20" as="geometry" />
        </mxCell>
        <mxCell id="UK-q2pysJeKZqtUmhiG1-467" value="C (T6)" style="rounded=0;whiteSpace=wrap;html=1;fillColor=#f5f5f5;strokeColor=#666666;fontColor=#333333;" vertex="1" parent="1">
          <mxGeometry x="2240" y="1060" width="400" height="20" as="geometry" />
        </mxCell>
        <mxCell id="UK-q2pysJeKZqtUmhiG1-468" value="C (T6)" style="rounded=0;whiteSpace=wrap;html=1;fillColor=#d5e8d4;strokeColor=#82b366;" vertex="1" parent="1">
          <mxGeometry x="2001" y="1060" width="239" height="20" as="geometry" />
        </mxCell>
        <mxCell id="UK-q2pysJeKZqtUmhiG1-469" value="D (T4)" style="rounded=0;whiteSpace=wrap;html=1;fillColor=#f5f5f5;strokeColor=#666666;fontColor=#333333;" vertex="1" parent="1">
          <mxGeometry x="2640" y="1030" width="240" height="20" as="geometry" />
        </mxCell>
        <mxCell id="UK-q2pysJeKZqtUmhiG1-471" value="T17" style="rounded=0;whiteSpace=wrap;html=1;fillColor=#dae8fc;strokeColor=#6c8ebf;" vertex="1" parent="1">
          <mxGeometry x="2802" y="1150" width="80" height="40" as="geometry" />
        </mxCell>
        <mxCell id="UK-q2pysJeKZqtUmhiG1-472" value="T18" style="rounded=0;whiteSpace=wrap;html=1;fillColor=#dae8fc;strokeColor=#6c8ebf;" vertex="1" parent="1">
          <mxGeometry x="2882" y="1150" width="80" height="40" as="geometry" />
        </mxCell>
        <mxCell id="UK-q2pysJeKZqtUmhiG1-473" value="T19" style="rounded=0;whiteSpace=wrap;html=1;fillColor=#dae8fc;strokeColor=#6c8ebf;" vertex="1" parent="1">
          <mxGeometry x="2962" y="1150" width="80" height="40" as="geometry" />
        </mxCell>
        <mxCell id="UK-q2pysJeKZqtUmhiG1-474" value="T20" style="rounded=0;whiteSpace=wrap;html=1;fillColor=#dae8fc;strokeColor=#6c8ebf;" vertex="1" parent="1">
          <mxGeometry x="3042" y="1150" width="80" height="40" as="geometry" />
        </mxCell>
        <mxCell id="UK-q2pysJeKZqtUmhiG1-476" value="E (T2)" style="rounded=0;whiteSpace=wrap;html=1;fillColor=#d5e8d4;strokeColor=#82b366;" vertex="1" parent="1">
          <mxGeometry x="2959.5" y="1000" width="160" height="20" as="geometry" />
        </mxCell>
        <mxCell id="UK-q2pysJeKZqtUmhiG1-477" value="B (T5)" style="rounded=0;whiteSpace=wrap;html=1;fillColor=#d5e8d4;strokeColor=#82b366;" vertex="1" parent="1">
          <mxGeometry x="2241" y="1090" width="160" height="20" as="geometry" />
        </mxCell>
        <mxCell id="UK-q2pysJeKZqtUmhiG1-478" value="B (T5)" style="rounded=0;whiteSpace=wrap;html=1;fillColor=#f5f5f5;strokeColor=#666666;fontColor=#333333;" vertex="1" parent="1">
          <mxGeometry x="2000" y="1090" width="240" height="20" as="geometry" />
        </mxCell>
        <mxCell id="UK-q2pysJeKZqtUmhiG1-479" value="C (T6)" style="rounded=0;whiteSpace=wrap;html=1;fillColor=#d5e8d4;strokeColor=#82b366;" vertex="1" parent="1">
          <mxGeometry x="2640" y="1060" width="240" height="20" as="geometry" />
        </mxCell>
        <mxCell id="UK-q2pysJeKZqtUmhiG1-481" value="D (T4)" style="rounded=0;whiteSpace=wrap;html=1;fillColor=#f5f5f5;strokeColor=#666666;fontColor=#333333;" vertex="1" parent="1">
          <mxGeometry x="2320" y="1030" width="80" height="20" as="geometry" />
        </mxCell>
        <mxCell id="UK-q2pysJeKZqtUmhiG1-482" value="D (T4)" style="rounded=0;whiteSpace=wrap;html=1;fillColor=#d5e8d4;strokeColor=#82b366;" vertex="1" parent="1">
          <mxGeometry x="2880" y="1030" width="80" height="20" as="geometry" />
        </mxCell>
        <mxCell id="UK-q2pysJeKZqtUmhiG1-483" value="Tiempo" style="rounded=0;whiteSpace=wrap;html=1;fillColor=#dae8fc;strokeColor=#6c8ebf;" vertex="1" parent="1">
          <mxGeometry x="400" y="431" width="80" height="20" as="geometry" />
        </mxCell>
        <mxCell id="UK-q2pysJeKZqtUmhiG1-484" value="T1" style="rounded=0;whiteSpace=wrap;html=1;fillColor=#dae8fc;strokeColor=#6c8ebf;" vertex="1" parent="1">
          <mxGeometry x="1521" y="1470" width="80" height="40" as="geometry" />
        </mxCell>
        <mxCell id="UK-q2pysJeKZqtUmhiG1-485" value="T2" style="rounded=0;whiteSpace=wrap;html=1;fillColor=#dae8fc;strokeColor=#6c8ebf;" vertex="1" parent="1">
          <mxGeometry x="1601" y="1470" width="80" height="40" as="geometry" />
        </mxCell>
        <mxCell id="UK-q2pysJeKZqtUmhiG1-486" value="T3" style="rounded=0;whiteSpace=wrap;html=1;fillColor=#dae8fc;strokeColor=#6c8ebf;" vertex="1" parent="1">
          <mxGeometry x="1681" y="1470" width="80" height="40" as="geometry" />
        </mxCell>
        <mxCell id="UK-q2pysJeKZqtUmhiG1-487" value="T4" style="rounded=0;whiteSpace=wrap;html=1;fillColor=#dae8fc;strokeColor=#6c8ebf;" vertex="1" parent="1">
          <mxGeometry x="1761" y="1470" width="80" height="40" as="geometry" />
        </mxCell>
        <mxCell id="UK-q2pysJeKZqtUmhiG1-488" value="T5" style="rounded=0;whiteSpace=wrap;html=1;fillColor=#dae8fc;strokeColor=#6c8ebf;" vertex="1" parent="1">
          <mxGeometry x="1841" y="1470" width="80" height="40" as="geometry" />
        </mxCell>
        <mxCell id="UK-q2pysJeKZqtUmhiG1-489" value="T6" style="rounded=0;whiteSpace=wrap;html=1;fillColor=#dae8fc;strokeColor=#6c8ebf;" vertex="1" parent="1">
          <mxGeometry x="1921" y="1470" width="80" height="40" as="geometry" />
        </mxCell>
        <mxCell id="UK-q2pysJeKZqtUmhiG1-490" value="T7" style="rounded=0;whiteSpace=wrap;html=1;fillColor=#dae8fc;strokeColor=#6c8ebf;" vertex="1" parent="1">
          <mxGeometry x="2001" y="1470" width="80" height="40" as="geometry" />
        </mxCell>
        <mxCell id="UK-q2pysJeKZqtUmhiG1-491" value="T8" style="rounded=0;whiteSpace=wrap;html=1;fillColor=#dae8fc;strokeColor=#6c8ebf;" vertex="1" parent="1">
          <mxGeometry x="2081" y="1470" width="80" height="40" as="geometry" />
        </mxCell>
        <mxCell id="UK-q2pysJeKZqtUmhiG1-492" value="T9" style="rounded=0;whiteSpace=wrap;html=1;fillColor=#dae8fc;strokeColor=#6c8ebf;" vertex="1" parent="1">
          <mxGeometry x="2161" y="1470" width="80" height="40" as="geometry" />
        </mxCell>
        <mxCell id="UK-q2pysJeKZqtUmhiG1-493" value="A (T3)" style="rounded=0;whiteSpace=wrap;html=1;fillColor=#d5e8d4;strokeColor=#82b366;" vertex="1" parent="1">
          <mxGeometry x="1601" y="1440" width="79" height="20" as="geometry" />
        </mxCell>
        <mxCell id="UK-q2pysJeKZqtUmhiG1-494" value="B (T5)" style="rounded=0;whiteSpace=wrap;html=1;fillColor=#fff2cc;strokeColor=#d6b656;" vertex="1" parent="1">
          <mxGeometry x="1600" y="1410" width="80" height="20" as="geometry" />
        </mxCell>
        <mxCell id="UK-q2pysJeKZqtUmhiG1-495" value="C (T6)" style="rounded=0;whiteSpace=wrap;html=1;fillColor=#fff2cc;strokeColor=#d6b656;" vertex="1" parent="1">
          <mxGeometry x="1920" y="1380" width="80" height="20" as="geometry" />
        </mxCell>
        <mxCell id="UK-q2pysJeKZqtUmhiG1-496" value="D (T4)" style="rounded=0;whiteSpace=wrap;html=1;fillColor=#fff2cc;strokeColor=#d6b656;" vertex="1" parent="1">
          <mxGeometry x="2240" y="1350" width="80" height="20" as="geometry" />
        </mxCell>
        <mxCell id="UK-q2pysJeKZqtUmhiG1-497" value="A (T3)" style="rounded=0;whiteSpace=wrap;html=1;fillColor=#fff2cc;strokeColor=#d6b656;" vertex="1" parent="1">
          <mxGeometry x="1520" y="1440" width="80" height="10" as="geometry" />
        </mxCell>
        <mxCell id="UK-q2pysJeKZqtUmhiG1-498" value="T10" style="rounded=0;whiteSpace=wrap;html=1;fillColor=#dae8fc;strokeColor=#6c8ebf;" vertex="1" parent="1">
          <mxGeometry x="2241" y="1470" width="80" height="40" as="geometry" />
        </mxCell>
        <mxCell id="UK-q2pysJeKZqtUmhiG1-499" value="T11" style="rounded=0;whiteSpace=wrap;html=1;fillColor=#dae8fc;strokeColor=#6c8ebf;" vertex="1" parent="1">
          <mxGeometry x="2321" y="1470" width="80" height="40" as="geometry" />
        </mxCell>
        <mxCell id="UK-q2pysJeKZqtUmhiG1-500" value="T12" style="rounded=0;whiteSpace=wrap;html=1;fillColor=#dae8fc;strokeColor=#6c8ebf;" vertex="1" parent="1">
          <mxGeometry x="2401" y="1470" width="80" height="40" as="geometry" />
        </mxCell>
        <mxCell id="UK-q2pysJeKZqtUmhiG1-501" value="T13" style="rounded=0;whiteSpace=wrap;html=1;fillColor=#dae8fc;strokeColor=#6c8ebf;" vertex="1" parent="1">
          <mxGeometry x="2481" y="1470" width="80" height="40" as="geometry" />
        </mxCell>
        <mxCell id="UK-q2pysJeKZqtUmhiG1-502" value="T14" style="rounded=0;whiteSpace=wrap;html=1;fillColor=#dae8fc;strokeColor=#6c8ebf;" vertex="1" parent="1">
          <mxGeometry x="2561" y="1470" width="80" height="40" as="geometry" />
        </mxCell>
        <mxCell id="UK-q2pysJeKZqtUmhiG1-503" value="T15" style="rounded=0;whiteSpace=wrap;html=1;fillColor=#dae8fc;strokeColor=#6c8ebf;" vertex="1" parent="1">
          <mxGeometry x="2641.5" y="1470" width="80" height="40" as="geometry" />
        </mxCell>
        <mxCell id="UK-q2pysJeKZqtUmhiG1-504" value="T16" style="rounded=0;whiteSpace=wrap;html=1;fillColor=#dae8fc;strokeColor=#6c8ebf;" vertex="1" parent="1">
          <mxGeometry x="2722" y="1470" width="80" height="40" as="geometry" />
        </mxCell>
        <mxCell id="UK-q2pysJeKZqtUmhiG1-505" value="A (T3)" style="rounded=0;whiteSpace=wrap;html=1;fillColor=#d5e8d4;strokeColor=#82b366;" vertex="1" parent="1">
          <mxGeometry x="1520" y="1450" width="80" height="10" as="geometry" />
        </mxCell>
        <mxCell id="UK-q2pysJeKZqtUmhiG1-506" value="B (T5)" style="rounded=0;whiteSpace=wrap;html=1;fillColor=#f5f5f5;strokeColor=#666666;fontColor=#333333;" vertex="1" parent="1">
          <mxGeometry x="1841" y="1410" width="80" height="20" as="geometry" />
        </mxCell>
        <mxCell id="UK-q2pysJeKZqtUmhiG1-507" value="E (T2)" style="rounded=0;whiteSpace=wrap;html=1;fillColor=#fff2cc;strokeColor=#d6b656;" vertex="1" parent="1">
          <mxGeometry x="2800" y="1320" width="80" height="20" as="geometry" />
        </mxCell>
        <mxCell id="UK-q2pysJeKZqtUmhiG1-508" value="B (T5)" style="rounded=0;whiteSpace=wrap;html=1;fillColor=#d5e8d4;strokeColor=#82b366;" vertex="1" parent="1">
          <mxGeometry x="1681" y="1410" width="159" height="20" as="geometry" />
        </mxCell>
        <mxCell id="UK-q2pysJeKZqtUmhiG1-509" value="C (T6)" style="rounded=0;whiteSpace=wrap;html=1;fillColor=#f5f5f5;strokeColor=#666666;fontColor=#333333;" vertex="1" parent="1">
          <mxGeometry x="2240" y="1380" width="240" height="20" as="geometry" />
        </mxCell>
        <mxCell id="UK-q2pysJeKZqtUmhiG1-510" value="C (T6)" style="rounded=0;whiteSpace=wrap;html=1;fillColor=#d5e8d4;strokeColor=#82b366;" vertex="1" parent="1">
          <mxGeometry x="2080" y="1380" width="160" height="20" as="geometry" />
        </mxCell>
        <mxCell id="UK-q2pysJeKZqtUmhiG1-512" value="D (T4)" style="rounded=0;whiteSpace=wrap;html=1;fillColor=#d5e8d4;strokeColor=#82b366;" vertex="1" parent="1">
          <mxGeometry x="2319" y="1350" width="160" height="20" as="geometry" />
        </mxCell>
        <mxCell id="UK-q2pysJeKZqtUmhiG1-513" value="T17" style="rounded=0;whiteSpace=wrap;html=1;fillColor=#dae8fc;strokeColor=#6c8ebf;" vertex="1" parent="1">
          <mxGeometry x="2802" y="1470" width="80" height="40" as="geometry" />
        </mxCell>
        <mxCell id="UK-q2pysJeKZqtUmhiG1-514" value="T18" style="rounded=0;whiteSpace=wrap;html=1;fillColor=#dae8fc;strokeColor=#6c8ebf;" vertex="1" parent="1">
          <mxGeometry x="2882" y="1470" width="80" height="40" as="geometry" />
        </mxCell>
        <mxCell id="UK-q2pysJeKZqtUmhiG1-515" value="T19" style="rounded=0;whiteSpace=wrap;html=1;fillColor=#dae8fc;strokeColor=#6c8ebf;" vertex="1" parent="1">
          <mxGeometry x="2962" y="1470" width="80" height="40" as="geometry" />
        </mxCell>
        <mxCell id="UK-q2pysJeKZqtUmhiG1-516" value="T20" style="rounded=0;whiteSpace=wrap;html=1;fillColor=#dae8fc;strokeColor=#6c8ebf;" vertex="1" parent="1">
          <mxGeometry x="3042" y="1470" width="80" height="40" as="geometry" />
        </mxCell>
        <mxCell id="UK-q2pysJeKZqtUmhiG1-517" value="E (T2)" style="rounded=0;whiteSpace=wrap;html=1;fillColor=#d5e8d4;strokeColor=#82b366;" vertex="1" parent="1">
          <mxGeometry x="2960" y="1320" width="160" height="20" as="geometry" />
        </mxCell>
        <mxCell id="UK-q2pysJeKZqtUmhiG1-518" value="B (T5)" style="rounded=0;whiteSpace=wrap;html=1;fillColor=#d5e8d4;strokeColor=#82b366;" vertex="1" parent="1">
          <mxGeometry x="1921" y="1410" width="160" height="20" as="geometry" />
        </mxCell>
        <mxCell id="UK-q2pysJeKZqtUmhiG1-519" value="B (T5)" style="rounded=0;whiteSpace=wrap;html=1;fillColor=#f5f5f5;strokeColor=#666666;fontColor=#333333;" vertex="1" parent="1">
          <mxGeometry x="2081" y="1410" width="159" height="20" as="geometry" />
        </mxCell>
        <mxCell id="UK-q2pysJeKZqtUmhiG1-520" value="C (T6)" style="rounded=0;whiteSpace=wrap;html=1;fillColor=#d5e8d4;strokeColor=#82b366;" vertex="1" parent="1">
          <mxGeometry x="2480" y="1380" width="160" height="20" as="geometry" />
        </mxCell>
        <mxCell id="UK-q2pysJeKZqtUmhiG1-521" value="D (T4)" style="rounded=0;whiteSpace=wrap;html=1;fillColor=#f5f5f5;strokeColor=#666666;fontColor=#333333;" vertex="1" parent="1">
          <mxGeometry x="2479.5" y="1350" width="160.5" height="20" as="geometry" />
        </mxCell>
        <mxCell id="UK-q2pysJeKZqtUmhiG1-522" value="D (T4)" style="rounded=0;whiteSpace=wrap;html=1;fillColor=#d5e8d4;strokeColor=#82b366;" vertex="1" parent="1">
          <mxGeometry x="2639.5" y="1350" width="160.5" height="20" as="geometry" />
        </mxCell>
        <mxCell id="UK-q2pysJeKZqtUmhiG1-523" value="A (T3)" style="rounded=0;whiteSpace=wrap;html=1;fillColor=#f5f5f5;strokeColor=#666666;fontColor=#333333;" vertex="1" parent="1">
          <mxGeometry x="1680.5" y="1440" width="159.5" height="20" as="geometry" />
        </mxCell>
        <mxCell id="UK-q2pysJeKZqtUmhiG1-524" value="A (T3)" style="rounded=0;whiteSpace=wrap;html=1;fillColor=#d5e8d4;strokeColor=#82b366;" vertex="1" parent="1">
          <mxGeometry x="1841" y="1440" width="79" height="20" as="geometry" />
        </mxCell>
        <mxCell id="UK-q2pysJeKZqtUmhiG1-525" value="B (T5)" style="rounded=0;whiteSpace=wrap;html=1;fillColor=#d5e8d4;strokeColor=#82b366;" vertex="1" parent="1">
          <mxGeometry x="2240" y="1410" width="79" height="20" as="geometry" />
        </mxCell>
        <mxCell id="UK-q2pysJeKZqtUmhiG1-527" value="D (T4)" style="rounded=0;whiteSpace=wrap;html=1;fillColor=#d5e8d4;strokeColor=#82b366;" vertex="1" parent="1">
          <mxGeometry x="2400" y="1030" width="240" height="20" as="geometry" />
        </mxCell>
        <mxCell id="UK-q2pysJeKZqtUmhiG1-528" value="C (T6)" style="rounded=0;whiteSpace=wrap;html=1;fillColor=#f5f5f5;strokeColor=#666666;fontColor=#333333;" vertex="1" parent="1">
          <mxGeometry x="2000" y="1380" width="80" height="20" as="geometry" />
        </mxCell>
        <mxCell id="UK-q2pysJeKZqtUmhiG1-529" value="E (T2)" style="rounded=0;whiteSpace=wrap;html=1;fillColor=#f5f5f5;strokeColor=#666666;fontColor=#333333;" vertex="1" parent="1">
          <mxGeometry x="2879.5" y="1000" width="80" height="20" as="geometry" />
        </mxCell>
        <mxCell id="UK-q2pysJeKZqtUmhiG1-530" value="C (T6)" style="rounded=0;whiteSpace=wrap;html=1;fillColor=#f5f5f5;strokeColor=#666666;fontColor=#333333;" vertex="1" parent="1">
          <mxGeometry x="2639.5" y="1380" width="160" height="20" as="geometry" />
        </mxCell>
        <mxCell id="UK-q2pysJeKZqtUmhiG1-531" value="C (T6)" style="rounded=0;whiteSpace=wrap;html=1;fillColor=#d5e8d4;strokeColor=#82b366;" vertex="1" parent="1">
          <mxGeometry x="2799.5" y="1380" width="160" height="20" as="geometry" />
        </mxCell>
        <mxCell id="UK-q2pysJeKZqtUmhiG1-532" value="E (T2)" style="rounded=0;whiteSpace=wrap;html=1;fillColor=#f5f5f5;strokeColor=#666666;fontColor=#333333;" vertex="1" parent="1">
          <mxGeometry x="2880" y="1320" width="80" height="20" as="geometry" />
        </mxCell>
        <mxCell id="UK-q2pysJeKZqtUmhiG1-533" value="T1" style="rounded=0;whiteSpace=wrap;html=1;fillColor=#dae8fc;strokeColor=#6c8ebf;" vertex="1" parent="1">
          <mxGeometry x="1519" y="1865" width="80" height="40" as="geometry" />
        </mxCell>
        <mxCell id="UK-q2pysJeKZqtUmhiG1-534" value="T2" style="rounded=0;whiteSpace=wrap;html=1;fillColor=#dae8fc;strokeColor=#6c8ebf;" vertex="1" parent="1">
          <mxGeometry x="1599" y="1865" width="80" height="40" as="geometry" />
        </mxCell>
        <mxCell id="UK-q2pysJeKZqtUmhiG1-535" value="T3" style="rounded=0;whiteSpace=wrap;html=1;fillColor=#dae8fc;strokeColor=#6c8ebf;" vertex="1" parent="1">
          <mxGeometry x="1679" y="1865" width="80" height="40" as="geometry" />
        </mxCell>
        <mxCell id="UK-q2pysJeKZqtUmhiG1-536" value="T4" style="rounded=0;whiteSpace=wrap;html=1;fillColor=#dae8fc;strokeColor=#6c8ebf;" vertex="1" parent="1">
          <mxGeometry x="1759" y="1865" width="80" height="40" as="geometry" />
        </mxCell>
        <mxCell id="UK-q2pysJeKZqtUmhiG1-537" value="T5" style="rounded=0;whiteSpace=wrap;html=1;fillColor=#dae8fc;strokeColor=#6c8ebf;" vertex="1" parent="1">
          <mxGeometry x="1839" y="1865" width="80" height="40" as="geometry" />
        </mxCell>
        <mxCell id="UK-q2pysJeKZqtUmhiG1-538" value="T6" style="rounded=0;whiteSpace=wrap;html=1;fillColor=#dae8fc;strokeColor=#6c8ebf;" vertex="1" parent="1">
          <mxGeometry x="1919" y="1865" width="80" height="40" as="geometry" />
        </mxCell>
        <mxCell id="UK-q2pysJeKZqtUmhiG1-539" value="T7" style="rounded=0;whiteSpace=wrap;html=1;fillColor=#dae8fc;strokeColor=#6c8ebf;" vertex="1" parent="1">
          <mxGeometry x="1999" y="1865" width="80" height="40" as="geometry" />
        </mxCell>
        <mxCell id="UK-q2pysJeKZqtUmhiG1-540" value="T8" style="rounded=0;whiteSpace=wrap;html=1;fillColor=#dae8fc;strokeColor=#6c8ebf;" vertex="1" parent="1">
          <mxGeometry x="2079" y="1865" width="80" height="40" as="geometry" />
        </mxCell>
        <mxCell id="UK-q2pysJeKZqtUmhiG1-541" value="T9" style="rounded=0;whiteSpace=wrap;html=1;fillColor=#dae8fc;strokeColor=#6c8ebf;" vertex="1" parent="1">
          <mxGeometry x="2159" y="1865" width="80" height="40" as="geometry" />
        </mxCell>
        <mxCell id="UK-q2pysJeKZqtUmhiG1-542" value="A (T3)" style="rounded=0;whiteSpace=wrap;html=1;fillColor=#d5e8d4;strokeColor=#82b366;" vertex="1" parent="1">
          <mxGeometry x="1598" y="1835" width="161" height="20" as="geometry" />
        </mxCell>
        <mxCell id="UK-q2pysJeKZqtUmhiG1-543" value="B (T5)" style="rounded=0;whiteSpace=wrap;html=1;fillColor=#fff2cc;strokeColor=#d6b656;" vertex="1" parent="1">
          <mxGeometry x="1599" y="1805" width="80" height="20" as="geometry" />
        </mxCell>
        <mxCell id="UK-q2pysJeKZqtUmhiG1-544" value="C (T6)" style="rounded=0;whiteSpace=wrap;html=1;fillColor=#fff2cc;strokeColor=#d6b656;" vertex="1" parent="1">
          <mxGeometry x="1919" y="1775" width="80" height="20" as="geometry" />
        </mxCell>
        <mxCell id="UK-q2pysJeKZqtUmhiG1-545" value="D (T4)" style="rounded=0;whiteSpace=wrap;html=1;fillColor=#fff2cc;strokeColor=#d6b656;" vertex="1" parent="1">
          <mxGeometry x="2242" y="1745" width="80" height="20" as="geometry" />
        </mxCell>
        <mxCell id="UK-q2pysJeKZqtUmhiG1-546" value="A (T3)" style="rounded=0;whiteSpace=wrap;html=1;fillColor=#fff2cc;strokeColor=#d6b656;" vertex="1" parent="1">
          <mxGeometry x="1520" y="1835" width="80" height="10" as="geometry" />
        </mxCell>
        <mxCell id="UK-q2pysJeKZqtUmhiG1-547" value="T10" style="rounded=0;whiteSpace=wrap;html=1;fillColor=#dae8fc;strokeColor=#6c8ebf;" vertex="1" parent="1">
          <mxGeometry x="2239" y="1865" width="80" height="40" as="geometry" />
        </mxCell>
        <mxCell id="UK-q2pysJeKZqtUmhiG1-548" value="T11" style="rounded=0;whiteSpace=wrap;html=1;fillColor=#dae8fc;strokeColor=#6c8ebf;" vertex="1" parent="1">
          <mxGeometry x="2319" y="1865" width="80" height="40" as="geometry" />
        </mxCell>
        <mxCell id="UK-q2pysJeKZqtUmhiG1-549" value="T12" style="rounded=0;whiteSpace=wrap;html=1;fillColor=#dae8fc;strokeColor=#6c8ebf;" vertex="1" parent="1">
          <mxGeometry x="2399" y="1865" width="80" height="40" as="geometry" />
        </mxCell>
        <mxCell id="UK-q2pysJeKZqtUmhiG1-550" value="T13" style="rounded=0;whiteSpace=wrap;html=1;fillColor=#dae8fc;strokeColor=#6c8ebf;" vertex="1" parent="1">
          <mxGeometry x="2479" y="1865" width="80" height="40" as="geometry" />
        </mxCell>
        <mxCell id="UK-q2pysJeKZqtUmhiG1-551" value="T14" style="rounded=0;whiteSpace=wrap;html=1;fillColor=#dae8fc;strokeColor=#6c8ebf;" vertex="1" parent="1">
          <mxGeometry x="2559" y="1865" width="80" height="40" as="geometry" />
        </mxCell>
        <mxCell id="UK-q2pysJeKZqtUmhiG1-552" value="T15" style="rounded=0;whiteSpace=wrap;html=1;fillColor=#dae8fc;strokeColor=#6c8ebf;" vertex="1" parent="1">
          <mxGeometry x="2639.5" y="1865" width="80" height="40" as="geometry" />
        </mxCell>
        <mxCell id="UK-q2pysJeKZqtUmhiG1-553" value="T16" style="rounded=0;whiteSpace=wrap;html=1;fillColor=#dae8fc;strokeColor=#6c8ebf;" vertex="1" parent="1">
          <mxGeometry x="2720" y="1865" width="80" height="40" as="geometry" />
        </mxCell>
        <mxCell id="UK-q2pysJeKZqtUmhiG1-554" value="A (T3)" style="rounded=0;whiteSpace=wrap;html=1;fillColor=#d5e8d4;strokeColor=#82b366;" vertex="1" parent="1">
          <mxGeometry x="1520" y="1845" width="80" height="10" as="geometry" />
        </mxCell>
        <mxCell id="UK-q2pysJeKZqtUmhiG1-555" value="B (T5)" style="rounded=0;whiteSpace=wrap;html=1;fillColor=#f5f5f5;strokeColor=#666666;fontColor=#333333;" vertex="1" parent="1">
          <mxGeometry x="1680" y="1805" width="80" height="20" as="geometry" />
        </mxCell>
        <mxCell id="UK-q2pysJeKZqtUmhiG1-556" value="E (T2)" style="rounded=0;whiteSpace=wrap;html=1;fillColor=#fff2cc;strokeColor=#d6b656;" vertex="1" parent="1">
          <mxGeometry x="2799.5" y="1715" width="80" height="20" as="geometry" />
        </mxCell>
        <mxCell id="UK-q2pysJeKZqtUmhiG1-557" value="B (T5)" style="rounded=0;whiteSpace=wrap;html=1;fillColor=#d5e8d4;strokeColor=#82b366;" vertex="1" parent="1">
          <mxGeometry x="1760" y="1805" width="397" height="20" as="geometry" />
        </mxCell>
        <mxCell id="UK-q2pysJeKZqtUmhiG1-559" value="C (T6)" style="rounded=0;whiteSpace=wrap;html=1;fillColor=#d5e8d4;strokeColor=#82b366;" vertex="1" parent="1">
          <mxGeometry x="2160" y="1775" width="480" height="20" as="geometry" />
        </mxCell>
        <mxCell id="UK-q2pysJeKZqtUmhiG1-561" value="T17" style="rounded=0;whiteSpace=wrap;html=1;fillColor=#dae8fc;strokeColor=#6c8ebf;" vertex="1" parent="1">
          <mxGeometry x="2800" y="1865" width="80" height="40" as="geometry" />
        </mxCell>
        <mxCell id="UK-q2pysJeKZqtUmhiG1-562" value="T18" style="rounded=0;whiteSpace=wrap;html=1;fillColor=#dae8fc;strokeColor=#6c8ebf;" vertex="1" parent="1">
          <mxGeometry x="2880" y="1865" width="80" height="40" as="geometry" />
        </mxCell>
        <mxCell id="UK-q2pysJeKZqtUmhiG1-563" value="T19" style="rounded=0;whiteSpace=wrap;html=1;fillColor=#dae8fc;strokeColor=#6c8ebf;" vertex="1" parent="1">
          <mxGeometry x="2960" y="1865" width="80" height="40" as="geometry" />
        </mxCell>
        <mxCell id="UK-q2pysJeKZqtUmhiG1-564" value="T20" style="rounded=0;whiteSpace=wrap;html=1;fillColor=#dae8fc;strokeColor=#6c8ebf;" vertex="1" parent="1">
          <mxGeometry x="3040" y="1865" width="80" height="40" as="geometry" />
        </mxCell>
        <mxCell id="UK-q2pysJeKZqtUmhiG1-565" value="E (T2)" style="rounded=0;whiteSpace=wrap;html=1;fillColor=#d5e8d4;strokeColor=#82b366;" vertex="1" parent="1">
          <mxGeometry x="2959.5" y="1715" width="160" height="20" as="geometry" />
        </mxCell>
        <mxCell id="UK-q2pysJeKZqtUmhiG1-569" value="D (T4)" style="rounded=0;whiteSpace=wrap;html=1;fillColor=#f5f5f5;strokeColor=#666666;fontColor=#333333;" vertex="1" parent="1">
          <mxGeometry x="2320" y="1745" width="320" height="20" as="geometry" />
        </mxCell>
        <mxCell id="UK-q2pysJeKZqtUmhiG1-570" value="D (T4)" style="rounded=0;whiteSpace=wrap;html=1;fillColor=#d5e8d4;strokeColor=#82b366;" vertex="1" parent="1">
          <mxGeometry x="2640" y="1745" width="320" height="20" as="geometry" />
        </mxCell>
        <mxCell id="UK-q2pysJeKZqtUmhiG1-574" value="C (T6)" style="rounded=0;whiteSpace=wrap;html=1;fillColor=#f5f5f5;strokeColor=#666666;fontColor=#333333;" vertex="1" parent="1">
          <mxGeometry x="1999" y="1775" width="161" height="20" as="geometry" />
        </mxCell>
        <mxCell id="UK-q2pysJeKZqtUmhiG1-577" value="E (T2)" style="rounded=0;whiteSpace=wrap;html=1;fillColor=#f5f5f5;strokeColor=#666666;fontColor=#333333;" vertex="1" parent="1">
          <mxGeometry x="2879.5" y="1715" width="80" height="20" as="geometry" />
        </mxCell>
        <mxCell id="UK-q2pysJeKZqtUmhiG1-579" value="T1" style="rounded=0;whiteSpace=wrap;html=1;fillColor=#dae8fc;strokeColor=#6c8ebf;" vertex="1" parent="1">
          <mxGeometry x="1518.5" y="2150" width="80" height="40" as="geometry" />
        </mxCell>
        <mxCell id="UK-q2pysJeKZqtUmhiG1-580" value="T2" style="rounded=0;whiteSpace=wrap;html=1;fillColor=#dae8fc;strokeColor=#6c8ebf;" vertex="1" parent="1">
          <mxGeometry x="1598.5" y="2150" width="80" height="40" as="geometry" />
        </mxCell>
        <mxCell id="UK-q2pysJeKZqtUmhiG1-581" value="T3" style="rounded=0;whiteSpace=wrap;html=1;fillColor=#dae8fc;strokeColor=#6c8ebf;" vertex="1" parent="1">
          <mxGeometry x="1678.5" y="2150" width="80" height="40" as="geometry" />
        </mxCell>
        <mxCell id="UK-q2pysJeKZqtUmhiG1-582" value="T4" style="rounded=0;whiteSpace=wrap;html=1;fillColor=#dae8fc;strokeColor=#6c8ebf;" vertex="1" parent="1">
          <mxGeometry x="1758.5" y="2150" width="80" height="40" as="geometry" />
        </mxCell>
        <mxCell id="UK-q2pysJeKZqtUmhiG1-583" value="T5" style="rounded=0;whiteSpace=wrap;html=1;fillColor=#dae8fc;strokeColor=#6c8ebf;" vertex="1" parent="1">
          <mxGeometry x="1838.5" y="2150" width="80" height="40" as="geometry" />
        </mxCell>
        <mxCell id="UK-q2pysJeKZqtUmhiG1-584" value="T6" style="rounded=0;whiteSpace=wrap;html=1;fillColor=#dae8fc;strokeColor=#6c8ebf;" vertex="1" parent="1">
          <mxGeometry x="1918.5" y="2150" width="80" height="40" as="geometry" />
        </mxCell>
        <mxCell id="UK-q2pysJeKZqtUmhiG1-585" value="T7" style="rounded=0;whiteSpace=wrap;html=1;fillColor=#dae8fc;strokeColor=#6c8ebf;" vertex="1" parent="1">
          <mxGeometry x="1998.5" y="2150" width="80" height="40" as="geometry" />
        </mxCell>
        <mxCell id="UK-q2pysJeKZqtUmhiG1-586" value="T8" style="rounded=0;whiteSpace=wrap;html=1;fillColor=#dae8fc;strokeColor=#6c8ebf;" vertex="1" parent="1">
          <mxGeometry x="2078.5" y="2150" width="80" height="40" as="geometry" />
        </mxCell>
        <mxCell id="UK-q2pysJeKZqtUmhiG1-587" value="T9" style="rounded=0;whiteSpace=wrap;html=1;fillColor=#dae8fc;strokeColor=#6c8ebf;" vertex="1" parent="1">
          <mxGeometry x="2158.5" y="2150" width="80" height="40" as="geometry" />
        </mxCell>
        <mxCell id="UK-q2pysJeKZqtUmhiG1-588" value="A (T3)" style="rounded=0;whiteSpace=wrap;html=1;fillColor=#d5e8d4;strokeColor=#82b366;" vertex="1" parent="1">
          <mxGeometry x="1597.5" y="2120" width="161" height="20" as="geometry" />
        </mxCell>
        <mxCell id="UK-q2pysJeKZqtUmhiG1-589" value="B (T5)" style="rounded=0;whiteSpace=wrap;html=1;fillColor=#fff2cc;strokeColor=#d6b656;" vertex="1" parent="1">
          <mxGeometry x="1598.5" y="2090" width="80" height="20" as="geometry" />
        </mxCell>
        <mxCell id="UK-q2pysJeKZqtUmhiG1-590" value="C (T6)" style="rounded=0;whiteSpace=wrap;html=1;fillColor=#fff2cc;strokeColor=#d6b656;" vertex="1" parent="1">
          <mxGeometry x="1918.5" y="2060" width="80" height="20" as="geometry" />
        </mxCell>
        <mxCell id="UK-q2pysJeKZqtUmhiG1-591" value="D (T4)" style="rounded=0;whiteSpace=wrap;html=1;fillColor=#fff2cc;strokeColor=#d6b656;" vertex="1" parent="1">
          <mxGeometry x="2241.5" y="2030" width="80" height="10" as="geometry" />
        </mxCell>
        <mxCell id="UK-q2pysJeKZqtUmhiG1-592" value="A (T3)" style="rounded=0;whiteSpace=wrap;html=1;fillColor=#fff2cc;strokeColor=#d6b656;" vertex="1" parent="1">
          <mxGeometry x="1519.5" y="2120" width="80" height="10" as="geometry" />
        </mxCell>
        <mxCell id="UK-q2pysJeKZqtUmhiG1-593" value="T10" style="rounded=0;whiteSpace=wrap;html=1;fillColor=#dae8fc;strokeColor=#6c8ebf;" vertex="1" parent="1">
          <mxGeometry x="2238.5" y="2150" width="80" height="40" as="geometry" />
        </mxCell>
        <mxCell id="UK-q2pysJeKZqtUmhiG1-594" value="T11" style="rounded=0;whiteSpace=wrap;html=1;fillColor=#dae8fc;strokeColor=#6c8ebf;" vertex="1" parent="1">
          <mxGeometry x="2318.5" y="2150" width="80" height="40" as="geometry" />
        </mxCell>
        <mxCell id="UK-q2pysJeKZqtUmhiG1-595" value="T12" style="rounded=0;whiteSpace=wrap;html=1;fillColor=#dae8fc;strokeColor=#6c8ebf;" vertex="1" parent="1">
          <mxGeometry x="2398.5" y="2150" width="80" height="40" as="geometry" />
        </mxCell>
        <mxCell id="UK-q2pysJeKZqtUmhiG1-596" value="T13" style="rounded=0;whiteSpace=wrap;html=1;fillColor=#dae8fc;strokeColor=#6c8ebf;" vertex="1" parent="1">
          <mxGeometry x="2478.5" y="2150" width="80" height="40" as="geometry" />
        </mxCell>
        <mxCell id="UK-q2pysJeKZqtUmhiG1-597" value="T14" style="rounded=0;whiteSpace=wrap;html=1;fillColor=#dae8fc;strokeColor=#6c8ebf;" vertex="1" parent="1">
          <mxGeometry x="2558.5" y="2150" width="80" height="40" as="geometry" />
        </mxCell>
        <mxCell id="UK-q2pysJeKZqtUmhiG1-598" value="T15" style="rounded=0;whiteSpace=wrap;html=1;fillColor=#dae8fc;strokeColor=#6c8ebf;" vertex="1" parent="1">
          <mxGeometry x="2639" y="2150" width="80" height="40" as="geometry" />
        </mxCell>
        <mxCell id="UK-q2pysJeKZqtUmhiG1-599" value="T16" style="rounded=0;whiteSpace=wrap;html=1;fillColor=#dae8fc;strokeColor=#6c8ebf;" vertex="1" parent="1">
          <mxGeometry x="2719.5" y="2150" width="80" height="40" as="geometry" />
        </mxCell>
        <mxCell id="UK-q2pysJeKZqtUmhiG1-600" value="A (T3)" style="rounded=0;whiteSpace=wrap;html=1;fillColor=#d5e8d4;strokeColor=#82b366;" vertex="1" parent="1">
          <mxGeometry x="1519.5" y="2130" width="80" height="10" as="geometry" />
        </mxCell>
        <mxCell id="UK-q2pysJeKZqtUmhiG1-601" value="B (T5)" style="rounded=0;whiteSpace=wrap;html=1;fillColor=#f5f5f5;strokeColor=#666666;fontColor=#333333;" vertex="1" parent="1">
          <mxGeometry x="1679.5" y="2090" width="80" height="20" as="geometry" />
        </mxCell>
        <mxCell id="UK-q2pysJeKZqtUmhiG1-602" value="E (T2)" style="rounded=0;whiteSpace=wrap;html=1;fillColor=#fff2cc;strokeColor=#d6b656;" vertex="1" parent="1">
          <mxGeometry x="2799" y="2000" width="80" height="20" as="geometry" />
        </mxCell>
        <mxCell id="UK-q2pysJeKZqtUmhiG1-603" value="B (T5)" style="rounded=0;whiteSpace=wrap;html=1;fillColor=#d5e8d4;strokeColor=#82b366;" vertex="1" parent="1">
          <mxGeometry x="1759.5" y="2090" width="400.5" height="20" as="geometry" />
        </mxCell>
        <mxCell id="UK-q2pysJeKZqtUmhiG1-604" value="C (T6)" style="rounded=0;whiteSpace=wrap;html=1;fillColor=#d5e8d4;strokeColor=#82b366;" vertex="1" parent="1">
          <mxGeometry x="2159.5" y="2060" width="80.5" height="20" as="geometry" />
        </mxCell>
        <mxCell id="UK-q2pysJeKZqtUmhiG1-605" value="T17" style="rounded=0;whiteSpace=wrap;html=1;fillColor=#dae8fc;strokeColor=#6c8ebf;" vertex="1" parent="1">
          <mxGeometry x="2799.5" y="2150" width="80" height="40" as="geometry" />
        </mxCell>
        <mxCell id="UK-q2pysJeKZqtUmhiG1-606" value="T18" style="rounded=0;whiteSpace=wrap;html=1;fillColor=#dae8fc;strokeColor=#6c8ebf;" vertex="1" parent="1">
          <mxGeometry x="2879.5" y="2150" width="80" height="40" as="geometry" />
        </mxCell>
        <mxCell id="UK-q2pysJeKZqtUmhiG1-607" value="T19" style="rounded=0;whiteSpace=wrap;html=1;fillColor=#dae8fc;strokeColor=#6c8ebf;" vertex="1" parent="1">
          <mxGeometry x="2959.5" y="2150" width="80" height="40" as="geometry" />
        </mxCell>
        <mxCell id="UK-q2pysJeKZqtUmhiG1-608" value="T20" style="rounded=0;whiteSpace=wrap;html=1;fillColor=#dae8fc;strokeColor=#6c8ebf;" vertex="1" parent="1">
          <mxGeometry x="3039.5" y="2150" width="80" height="40" as="geometry" />
        </mxCell>
        <mxCell id="UK-q2pysJeKZqtUmhiG1-609" value="E (T2)" style="rounded=0;whiteSpace=wrap;html=1;fillColor=#d5e8d4;strokeColor=#82b366;" vertex="1" parent="1">
          <mxGeometry x="2959" y="2000" width="160" height="20" as="geometry" />
        </mxCell>
        <mxCell id="UK-q2pysJeKZqtUmhiG1-610" value="D (T4)" style="rounded=0;whiteSpace=wrap;html=1;fillColor=#d5e8d4;strokeColor=#82b366;" vertex="1" parent="1">
          <mxGeometry x="2319.5" y="2030" width="240.5" height="20" as="geometry" />
        </mxCell>
        <mxCell id="UK-q2pysJeKZqtUmhiG1-611" value="D (T4)" style="rounded=0;whiteSpace=wrap;html=1;fillColor=#d5e8d4;strokeColor=#82b366;" vertex="1" parent="1">
          <mxGeometry x="2241.5" y="2040" width="78.5" height="10" as="geometry" />
        </mxCell>
        <mxCell id="UK-q2pysJeKZqtUmhiG1-612" value="C (T6)" style="rounded=0;whiteSpace=wrap;html=1;fillColor=#f5f5f5;strokeColor=#666666;fontColor=#333333;" vertex="1" parent="1">
          <mxGeometry x="1998.5" y="2060" width="161" height="20" as="geometry" />
        </mxCell>
        <mxCell id="UK-q2pysJeKZqtUmhiG1-613" value="E (T2)" style="rounded=0;whiteSpace=wrap;html=1;fillColor=#f5f5f5;strokeColor=#666666;fontColor=#333333;" vertex="1" parent="1">
          <mxGeometry x="2879" y="2000" width="80" height="20" as="geometry" />
        </mxCell>
        <mxCell id="UK-q2pysJeKZqtUmhiG1-614" value="Algoritmo SRTF (Ejecutamos el proceso que lleve menos tiempo terminar priorizamos nuevos)" style="text;html=1;align=left;verticalAlign=middle;whiteSpace=wrap;rounded=0;" vertex="1" parent="1">
          <mxGeometry x="1524" y="2260" width="516" height="30" as="geometry" />
        </mxCell>
        <mxCell id="UK-q2pysJeKZqtUmhiG1-650" value="C (T6)" style="rounded=0;whiteSpace=wrap;html=1;fillColor=#f5f5f5;strokeColor=#666666;fontColor=#333333;" vertex="1" parent="1">
          <mxGeometry x="2239.5" y="2060" width="319.5" height="20" as="geometry" />
        </mxCell>
        <mxCell id="UK-q2pysJeKZqtUmhiG1-651" value="C (T6)" style="rounded=0;whiteSpace=wrap;html=1;fillColor=#d5e8d4;strokeColor=#82b366;" vertex="1" parent="1">
          <mxGeometry x="2559" y="2060" width="401" height="20" as="geometry" />
        </mxCell>
        <mxCell id="UK-q2pysJeKZqtUmhiG1-652" value="T1" style="rounded=0;whiteSpace=wrap;html=1;fillColor=#dae8fc;strokeColor=#6c8ebf;" vertex="1" parent="1">
          <mxGeometry x="1519.5" y="2450" width="80" height="40" as="geometry" />
        </mxCell>
        <mxCell id="UK-q2pysJeKZqtUmhiG1-653" value="T2" style="rounded=0;whiteSpace=wrap;html=1;fillColor=#dae8fc;strokeColor=#6c8ebf;" vertex="1" parent="1">
          <mxGeometry x="1599.5" y="2450" width="80" height="40" as="geometry" />
        </mxCell>
        <mxCell id="UK-q2pysJeKZqtUmhiG1-654" value="T3" style="rounded=0;whiteSpace=wrap;html=1;fillColor=#dae8fc;strokeColor=#6c8ebf;" vertex="1" parent="1">
          <mxGeometry x="1679.5" y="2450" width="80" height="40" as="geometry" />
        </mxCell>
        <mxCell id="UK-q2pysJeKZqtUmhiG1-655" value="T4" style="rounded=0;whiteSpace=wrap;html=1;fillColor=#dae8fc;strokeColor=#6c8ebf;" vertex="1" parent="1">
          <mxGeometry x="1759.5" y="2450" width="80" height="40" as="geometry" />
        </mxCell>
        <mxCell id="UK-q2pysJeKZqtUmhiG1-656" value="T5" style="rounded=0;whiteSpace=wrap;html=1;fillColor=#dae8fc;strokeColor=#6c8ebf;" vertex="1" parent="1">
          <mxGeometry x="1839.5" y="2450" width="80" height="40" as="geometry" />
        </mxCell>
        <mxCell id="UK-q2pysJeKZqtUmhiG1-657" value="T6" style="rounded=0;whiteSpace=wrap;html=1;fillColor=#dae8fc;strokeColor=#6c8ebf;" vertex="1" parent="1">
          <mxGeometry x="1919.5" y="2450" width="80" height="40" as="geometry" />
        </mxCell>
        <mxCell id="UK-q2pysJeKZqtUmhiG1-658" value="T7" style="rounded=0;whiteSpace=wrap;html=1;fillColor=#dae8fc;strokeColor=#6c8ebf;" vertex="1" parent="1">
          <mxGeometry x="1999.5" y="2450" width="80" height="40" as="geometry" />
        </mxCell>
        <mxCell id="UK-q2pysJeKZqtUmhiG1-659" value="T8" style="rounded=0;whiteSpace=wrap;html=1;fillColor=#dae8fc;strokeColor=#6c8ebf;" vertex="1" parent="1">
          <mxGeometry x="2079.5" y="2450" width="80" height="40" as="geometry" />
        </mxCell>
        <mxCell id="UK-q2pysJeKZqtUmhiG1-660" value="T9" style="rounded=0;whiteSpace=wrap;html=1;fillColor=#dae8fc;strokeColor=#6c8ebf;" vertex="1" parent="1">
          <mxGeometry x="2159.5" y="2450" width="80" height="40" as="geometry" />
        </mxCell>
        <mxCell id="UK-q2pysJeKZqtUmhiG1-661" value="A (T3)" style="rounded=0;whiteSpace=wrap;html=1;fillColor=#d5e8d4;strokeColor=#82b366;" vertex="1" parent="1">
          <mxGeometry x="1598.5" y="2420" width="161" height="20" as="geometry" />
        </mxCell>
        <mxCell id="UK-q2pysJeKZqtUmhiG1-662" value="B (T5)" style="rounded=0;whiteSpace=wrap;html=1;fillColor=#fff2cc;strokeColor=#d6b656;" vertex="1" parent="1">
          <mxGeometry x="1599.5" y="2390" width="80" height="20" as="geometry" />
        </mxCell>
        <mxCell id="UK-q2pysJeKZqtUmhiG1-663" value="C (T6)" style="rounded=0;whiteSpace=wrap;html=1;fillColor=#fff2cc;strokeColor=#d6b656;" vertex="1" parent="1">
          <mxGeometry x="1919.5" y="2360" width="80" height="20" as="geometry" />
        </mxCell>
        <mxCell id="UK-q2pysJeKZqtUmhiG1-664" value="D (T4)" style="rounded=0;whiteSpace=wrap;html=1;fillColor=#fff2cc;strokeColor=#d6b656;" vertex="1" parent="1">
          <mxGeometry x="2240.5" y="2330" width="80" height="10" as="geometry" />
        </mxCell>
        <mxCell id="UK-q2pysJeKZqtUmhiG1-665" value="A (T3)" style="rounded=0;whiteSpace=wrap;html=1;fillColor=#fff2cc;strokeColor=#d6b656;" vertex="1" parent="1">
          <mxGeometry x="1520.5" y="2420" width="80" height="10" as="geometry" />
        </mxCell>
        <mxCell id="UK-q2pysJeKZqtUmhiG1-666" value="T10" style="rounded=0;whiteSpace=wrap;html=1;fillColor=#dae8fc;strokeColor=#6c8ebf;" vertex="1" parent="1">
          <mxGeometry x="2239.5" y="2450" width="80" height="40" as="geometry" />
        </mxCell>
        <mxCell id="UK-q2pysJeKZqtUmhiG1-667" value="T11" style="rounded=0;whiteSpace=wrap;html=1;fillColor=#dae8fc;strokeColor=#6c8ebf;" vertex="1" parent="1">
          <mxGeometry x="2319.5" y="2450" width="80" height="40" as="geometry" />
        </mxCell>
        <mxCell id="UK-q2pysJeKZqtUmhiG1-668" value="T12" style="rounded=0;whiteSpace=wrap;html=1;fillColor=#dae8fc;strokeColor=#6c8ebf;" vertex="1" parent="1">
          <mxGeometry x="2399.5" y="2450" width="80" height="40" as="geometry" />
        </mxCell>
        <mxCell id="UK-q2pysJeKZqtUmhiG1-669" value="T13" style="rounded=0;whiteSpace=wrap;html=1;fillColor=#dae8fc;strokeColor=#6c8ebf;" vertex="1" parent="1">
          <mxGeometry x="2479.5" y="2450" width="80" height="40" as="geometry" />
        </mxCell>
        <mxCell id="UK-q2pysJeKZqtUmhiG1-670" value="T14" style="rounded=0;whiteSpace=wrap;html=1;fillColor=#dae8fc;strokeColor=#6c8ebf;" vertex="1" parent="1">
          <mxGeometry x="2559.5" y="2450" width="80" height="40" as="geometry" />
        </mxCell>
        <mxCell id="UK-q2pysJeKZqtUmhiG1-671" value="T15" style="rounded=0;whiteSpace=wrap;html=1;fillColor=#dae8fc;strokeColor=#6c8ebf;" vertex="1" parent="1">
          <mxGeometry x="2640" y="2450" width="80" height="40" as="geometry" />
        </mxCell>
        <mxCell id="UK-q2pysJeKZqtUmhiG1-672" value="T16" style="rounded=0;whiteSpace=wrap;html=1;fillColor=#dae8fc;strokeColor=#6c8ebf;" vertex="1" parent="1">
          <mxGeometry x="2720.5" y="2450" width="80" height="40" as="geometry" />
        </mxCell>
        <mxCell id="UK-q2pysJeKZqtUmhiG1-673" value="A (T3)" style="rounded=0;whiteSpace=wrap;html=1;fillColor=#d5e8d4;strokeColor=#82b366;" vertex="1" parent="1">
          <mxGeometry x="1520.5" y="2430" width="80" height="10" as="geometry" />
        </mxCell>
        <mxCell id="UK-q2pysJeKZqtUmhiG1-674" value="B (T5)" style="rounded=0;whiteSpace=wrap;html=1;fillColor=#f5f5f5;strokeColor=#666666;fontColor=#333333;" vertex="1" parent="1">
          <mxGeometry x="1680.5" y="2390" width="80" height="20" as="geometry" />
        </mxCell>
        <mxCell id="UK-q2pysJeKZqtUmhiG1-675" value="E (T2)" style="rounded=0;whiteSpace=wrap;html=1;fillColor=#fff2cc;strokeColor=#d6b656;" vertex="1" parent="1">
          <mxGeometry x="2800" y="2300" width="80" height="10" as="geometry" />
        </mxCell>
        <mxCell id="UK-q2pysJeKZqtUmhiG1-676" value="B (T5)" style="rounded=0;whiteSpace=wrap;html=1;fillColor=#d5e8d4;strokeColor=#82b366;" vertex="1" parent="1">
          <mxGeometry x="1760.5" y="2390" width="400.5" height="20" as="geometry" />
        </mxCell>
        <mxCell id="UK-q2pysJeKZqtUmhiG1-677" value="C (T6)" style="rounded=0;whiteSpace=wrap;html=1;fillColor=#d5e8d4;strokeColor=#82b366;" vertex="1" parent="1">
          <mxGeometry x="2160.5" y="2360" width="80.5" height="20" as="geometry" />
        </mxCell>
        <mxCell id="UK-q2pysJeKZqtUmhiG1-678" value="T17" style="rounded=0;whiteSpace=wrap;html=1;fillColor=#dae8fc;strokeColor=#6c8ebf;" vertex="1" parent="1">
          <mxGeometry x="2800.5" y="2450" width="80" height="40" as="geometry" />
        </mxCell>
        <mxCell id="UK-q2pysJeKZqtUmhiG1-679" value="T18" style="rounded=0;whiteSpace=wrap;html=1;fillColor=#dae8fc;strokeColor=#6c8ebf;" vertex="1" parent="1">
          <mxGeometry x="2880.5" y="2450" width="80" height="40" as="geometry" />
        </mxCell>
        <mxCell id="UK-q2pysJeKZqtUmhiG1-680" value="T19" style="rounded=0;whiteSpace=wrap;html=1;fillColor=#dae8fc;strokeColor=#6c8ebf;" vertex="1" parent="1">
          <mxGeometry x="2960.5" y="2450" width="80" height="40" as="geometry" />
        </mxCell>
        <mxCell id="UK-q2pysJeKZqtUmhiG1-681" value="T20" style="rounded=0;whiteSpace=wrap;html=1;fillColor=#dae8fc;strokeColor=#6c8ebf;" vertex="1" parent="1">
          <mxGeometry x="3040.5" y="2450" width="80" height="40" as="geometry" />
        </mxCell>
        <mxCell id="UK-q2pysJeKZqtUmhiG1-682" value="E (T2)" style="rounded=0;whiteSpace=wrap;html=1;fillColor=#d5e8d4;strokeColor=#82b366;" vertex="1" parent="1">
          <mxGeometry x="2880.5" y="2300" width="79.5" height="20" as="geometry" />
        </mxCell>
        <mxCell id="UK-q2pysJeKZqtUmhiG1-683" value="D (T4)" style="rounded=0;whiteSpace=wrap;html=1;fillColor=#d5e8d4;strokeColor=#82b366;" vertex="1" parent="1">
          <mxGeometry x="2318.5" y="2330" width="240.5" height="20" as="geometry" />
        </mxCell>
        <mxCell id="UK-q2pysJeKZqtUmhiG1-684" value="D (T4)" style="rounded=0;whiteSpace=wrap;html=1;fillColor=#d5e8d4;strokeColor=#82b366;" vertex="1" parent="1">
          <mxGeometry x="2240.5" y="2340" width="78.5" height="10" as="geometry" />
        </mxCell>
        <mxCell id="UK-q2pysJeKZqtUmhiG1-685" value="C (T6)" style="rounded=0;whiteSpace=wrap;html=1;fillColor=#f5f5f5;strokeColor=#666666;fontColor=#333333;" vertex="1" parent="1">
          <mxGeometry x="1999.5" y="2360" width="161" height="20" as="geometry" />
        </mxCell>
        <mxCell id="UK-q2pysJeKZqtUmhiG1-686" value="E (T2)" style="rounded=0;whiteSpace=wrap;html=1;fillColor=#d5e8d4;strokeColor=#82b366;" vertex="1" parent="1">
          <mxGeometry x="2800" y="2310" width="80" height="10" as="geometry" />
        </mxCell>
        <mxCell id="UK-q2pysJeKZqtUmhiG1-687" value="C (T6)" style="rounded=0;whiteSpace=wrap;html=1;fillColor=#f5f5f5;strokeColor=#666666;fontColor=#333333;" vertex="1" parent="1">
          <mxGeometry x="2240.5" y="2360" width="319.5" height="20" as="geometry" />
        </mxCell>
        <mxCell id="UK-q2pysJeKZqtUmhiG1-688" value="C (T6)" style="rounded=0;whiteSpace=wrap;html=1;fillColor=#d5e8d4;strokeColor=#82b366;" vertex="1" parent="1">
          <mxGeometry x="2560" y="2360" width="240" height="20" as="geometry" />
        </mxCell>
        <mxCell id="UK-q2pysJeKZqtUmhiG1-689" value="C (T6)" style="rounded=0;whiteSpace=wrap;html=1;fillColor=#f5f5f5;strokeColor=#666666;fontColor=#333333;" vertex="1" parent="1">
          <mxGeometry x="2800.5" y="2360" width="159.5" height="20" as="geometry" />
        </mxCell>
        <mxCell id="UK-q2pysJeKZqtUmhiG1-690" value="C (T6)" style="rounded=0;whiteSpace=wrap;html=1;fillColor=#d5e8d4;strokeColor=#82b366;" vertex="1" parent="1">
          <mxGeometry x="2959" y="2360" width="161" height="20" as="geometry" />
        </mxCell>
        <mxCell id="UK-q2pysJeKZqtUmhiG1-691" value="P1 (T7)" style="rounded=0;whiteSpace=wrap;html=1;fillColor=#d5e8d4;strokeColor=#82b366;" vertex="1" parent="1">
          <mxGeometry x="520.5" y="1060" width="239.5" height="20" as="geometry" />
        </mxCell>
        <mxCell id="UK-q2pysJeKZqtUmhiG1-692" value="P1 (T7)" style="rounded=0;whiteSpace=wrap;html=1;fillColor=#f5f5f5;strokeColor=#666666;fontColor=#333333;" vertex="1" parent="1">
          <mxGeometry x="281" y="1060" width="239.5" height="20" as="geometry" />
        </mxCell>
        <mxCell id="UK-q2pysJeKZqtUmhiG1-693" value="P1 (T7)" style="rounded=0;whiteSpace=wrap;html=1;fillColor=#f5f5f5;strokeColor=#666666;fontColor=#333333;" vertex="1" parent="1">
          <mxGeometry x="760" y="1060" width="400" height="20" as="geometry" />
        </mxCell>
        <mxCell id="UK-q2pysJeKZqtUmhiG1-694" value="P1 (T7)" style="rounded=0;whiteSpace=wrap;html=1;fillColor=#d5e8d4;strokeColor=#82b366;" vertex="1" parent="1">
          <mxGeometry x="1159" y="1060" width="81" height="20" as="geometry" />
        </mxCell>
      </root>
    </mxGraphModel>
  </diagram>
</mxfile>
